<?xml version="1.0" standalone="no"?>
<!DOCTYPE svg PUBLIC "-//W3C//DTD SVG 20010904//EN"
 "http://www.w3.org/TR/2001/REC-SVG-20010904/DTD/svg10.dtd">
<svg version="1.0" xmlns="http://www.w3.org/2000/svg"
 width="2400.000000pt" height="2400.000000pt" viewBox="0 0 2400.000000 2400.000000"
 preserveAspectRatio="xMidYMid meet">
<metadata>
Created by potrace 1.16, written by Peter Selinger 2001-2019
</metadata>
<g transform="translate(0.000000,2400.000000) scale(0.100000,-0.100000)"
fill="#C6BE7E" stroke="none">
<path d="M7950 18000 l0 -80 25 0 25 0 0 -50 0 -50 25 0 25 0 0 -50 0 -50 25
0 c20 0 25 -5 25 -25 0 -20 5 -25 25 -25 20 0 25 -5 25 -25 0 -20 5 -25 25
-25 l25 0 0 -50 0 -50 25 0 c20 0 25 -5 25 -25 0 -20 5 -25 25 -25 20 0 25 -5
25 -25 0 -20 5 -25 25 -25 20 0 25 -5 25 -25 l0 -25 30 0 30 0 0 -25 c0 -20 5
-25 25 -25 20 0 25 -5 25 -25 l0 -25 50 0 50 0 0 -25 c0 -20 5 -25 25 -25 l25
0 0 -30 0 -30 25 0 c20 0 25 -5 25 -25 0 -20 5 -25 25 -25 20 0 25 -5 25 -25
l0 -25 50 0 50 0 0 -25 c0 -20 5 -25 25 -25 20 0 25 -5 25 -25 l0 -25 50 0 50
0 0 -25 c0 -20 5 -25 25 -25 20 0 25 -5 25 -25 l0 -25 50 0 50 0 0 -25 c0 -20
5 -25 25 -25 20 0 25 -5 25 -25 l0 -25 55 0 55 0 0 -25 0 -25 50 0 50 0 0 -25
0 -25 50 0 50 0 0 -25 c0 -20 5 -25 25 -25 20 0 25 -5 25 -25 l0 -25 50 0 50
0 0 -25 0 -25 50 0 50 0 0 -25 0 -25 50 0 50 0 0 -25 0 -25 50 0 50 0 0 -30 0
-30 55 0 55 0 0 -25 0 -25 50 0 50 0 0 -25 0 -25 50 0 50 0 0 -25 0 -25 50 0
50 0 0 -25 0 -25 50 0 50 0 0 -25 0 -25 75 0 75 0 0 -25 0 -25 50 0 50 0 0
-25 0 -25 50 0 50 0 0 -25 0 -25 55 0 55 0 0 -25 0 -25 50 0 50 0 0 -25 0 -25
50 0 50 0 0 -25 c0 -20 5 -25 25 -25 20 0 25 -5 25 -25 0 -20 5 -25 25 -25 20
0 25 -5 25 -25 0 -20 5 -25 25 -25 20 0 25 -5 25 -25 0 -20 5 -25 25 -25 l25
0 0 -30 0 -30 25 0 c20 0 25 -5 25 -25 0 -20 5 -25 25 -25 20 0 25 -5 25 -25
0 -20 5 -25 25 -25 l25 0 0 -50 0 -50 25 0 c20 0 25 -5 25 -25 0 -20 5 -25 25
-25 l25 0 0 -50 0 -50 25 0 25 0 0 -50 0 -50 30 0 30 0 0 -50 0 -50 25 0 25 0
0 -50 0 -50 25 0 25 0 0 -50 0 -50 25 0 25 0 0 -55 0 -55 25 0 25 0 0 -50 0
-50 25 0 25 0 0 -50 0 -50 25 0 c20 0 25 -5 25 -25 0 -20 5 -25 25 -25 l25 0
0 -50 0 -50 50 0 50 0 0 25 c0 20 5 25 25 25 l25 0 0 50 0 50 25 0 25 0 0 50
0 50 25 0 25 0 0 50 0 50 25 0 25 0 0 55 0 55 25 0 25 0 0 50 0 50 30 0 30 0
0 50 0 50 25 0 25 0 0 50 0 50 25 0 c20 0 25 5 25 25 0 20 5 25 25 25 l25 0 0
50 0 50 25 0 25 0 0 50 0 50 25 0 25 0 0 50 0 50 25 0 c20 0 25 5 25 25 0 20
5 25 25 25 20 0 25 5 25 25 0 20 5 25 25 25 l25 0 0 30 0 30 25 0 c20 0 25 5
25 25 0 20 5 25 25 25 20 0 25 5 25 25 0 20 5 25 25 25 20 0 25 5 25 25 0 20
5 25 25 25 20 0 25 5 25 25 l0 25 50 0 50 0 0 25 0 25 55 0 55 0 0 25 0 25 50
0 50 0 0 25 0 25 50 0 50 0 0 25 0 25 50 0 50 0 0 25 0 25 75 0 75 0 0 25 0
25 50 0 50 0 0 25 0 25 50 0 50 0 0 25 0 25 50 0 50 0 0 25 0 25 55 0 55 0 0
25 0 25 50 0 50 0 0 30 0 30 50 0 50 0 0 25 0 25 50 0 50 0 0 25 0 25 50 0 50
0 0 25 0 25 50 0 50 0 0 25 0 25 50 0 50 0 0 25 c0 20 5 25 25 25 20 0 25 5
25 25 l0 25 55 0 55 0 0 25 0 25 50 0 50 0 0 25 c0 20 5 25 25 25 20 0 25 5
25 25 l0 25 50 0 50 0 0 25 c0 20 5 25 25 25 20 0 25 5 25 25 l0 25 50 0 50 0
0 25 c0 20 5 25 25 25 20 0 25 5 25 25 l0 25 50 0 50 0 0 25 c0 20 5 25 25 25
20 0 25 5 25 25 0 20 5 25 25 25 l25 0 0 30 0 30 25 0 c20 0 25 5 25 25 l0 25
55 0 55 0 0 25 c0 20 5 25 25 25 20 0 25 5 25 25 0 20 5 25 25 25 20 0 25 5
25 25 0 20 5 25 25 25 20 0 25 5 25 25 0 20 5 25 25 25 20 0 25 5 25 25 0 20
5 25 25 25 20 0 25 5 25 25 0 20 5 25 25 25 l25 0 0 -50 0 -50 -25 0 c-20 0
-25 -5 -25 -25 0 -20 -5 -25 -25 -25 -20 0 -25 -5 -25 -25 0 -20 -5 -25 -25
-25 l-25 0 0 -50 0 -50 -25 0 c-20 0 -25 -5 -25 -25 0 -20 -5 -25 -25 -25
l-25 0 0 -30 0 -30 -25 0 c-20 0 -25 -5 -25 -25 l0 -25 -30 0 -30 0 0 -25 c0
-20 -5 -25 -25 -25 -20 0 -25 -5 -25 -25 0 -20 -5 -25 -25 -25 -20 0 -25 -5
-25 -25 0 -20 -5 -25 -25 -25 -20 0 -25 -5 -25 -25 l0 -25 -50 0 -50 0 0 -25
c0 -20 -5 -25 -25 -25 -20 0 -25 -5 -25 -25 0 -20 -5 -25 -25 -25 -20 0 -25
-5 -25 -25 l0 -25 -50 0 -50 0 0 -25 c0 -20 -5 -25 -25 -25 -20 0 -25 -5 -25
-25 l0 -25 -50 0 -50 0 0 -25 0 -25 -50 0 -50 0 0 -25 c0 -20 -5 -25 -25 -25
-20 0 -25 -5 -25 -25 l0 -25 -55 0 -55 0 0 -25 0 -25 -50 0 -50 0 0 -25 0 -25
-50 0 -50 0 0 -30 0 -30 -50 0 -50 0 0 -25 0 -25 -50 0 -50 0 0 -25 0 -25 -50
0 -50 0 0 -25 0 -25 -50 0 -50 0 0 -25 0 -25 -50 0 -50 0 0 -25 0 -25 -80 0
-80 0 0 -25 0 -25 -50 0 -50 0 0 -25 0 -25 -50 0 -50 0 0 -25 0 -25 -50 0 -50
0 0 -25 0 -25 -50 0 -50 0 0 -25 0 -25 -50 0 -50 0 0 -25 0 -25 -50 0 -50 0 0
-25 c0 -20 -5 -25 -25 -25 -20 0 -25 -5 -25 -25 l0 -25 -55 0 -55 0 0 -25 c0
-20 -5 -25 -25 -25 l-25 0 0 -30 0 -30 -50 0 -50 0 0 -25 c0 -20 -5 -25 -25
-25 l-25 0 0 -50 0 -50 -25 0 c-20 0 -25 -5 -25 -25 0 -20 -5 -25 -25 -25
l-25 0 0 -50 0 -50 -25 0 c-20 0 -25 -5 -25 -25 0 -20 -5 -25 -25 -25 l-25 0
0 -50 0 -50 -25 0 c-20 0 -25 -5 -25 -25 0 -20 -5 -25 -25 -25 l-25 0 0 -50 0
-50 -25 0 c-20 0 -25 -5 -25 -25 0 -20 -5 -25 -25 -25 l-25 0 0 -50 0 -50 -25
0 -25 0 0 -30 0 -30 -25 0 -25 0 0 -50 0 -50 -30 0 -30 0 0 -50 0 -50 -25 0
c-20 0 -25 -5 -25 -25 0 -20 -5 -25 -25 -25 l-25 0 0 -50 0 -50 -25 0 c-20 0
-25 -5 -25 -25 0 -20 -5 -25 -25 -25 l-25 0 0 -50 0 -50 -25 0 -25 0 0 -50 0
-50 -50 0 -50 0 0 50 0 50 -25 0 -25 0 0 50 0 50 -25 0 c-20 0 -25 5 -25 25 0
20 -5 25 -25 25 l-25 0 0 50 0 50 -25 0 c-20 0 -25 5 -25 25 0 20 -5 25 -25
25 l-25 0 0 50 0 50 -25 0 -25 0 0 50 0 50 -25 0 -25 0 0 30 0 30 -30 0 -30 0
0 50 0 50 -25 0 c-20 0 -25 5 -25 25 0 20 -5 25 -25 25 l-25 0 0 50 0 50 -25
0 c-20 0 -25 5 -25 25 0 20 -5 25 -25 25 l-25 0 0 50 0 50 -25 0 -25 0 0 50 0
50 -25 0 c-20 0 -25 5 -25 25 0 20 -5 25 -25 25 l-25 0 0 50 0 50 -25 0 c-20
0 -25 5 -25 25 0 20 -5 25 -25 25 -20 0 -25 5 -25 25 0 20 -5 25 -25 25 l-25
0 0 30 0 30 -50 0 -50 0 0 25 c0 20 -5 25 -25 25 -20 0 -25 5 -25 25 l0 25
-50 0 -50 0 0 25 0 25 -55 0 -55 0 0 25 0 25 -50 0 -50 0 0 25 0 25 -50 0 -50
0 0 25 0 25 -50 0 -50 0 0 25 0 25 -50 0 -50 0 0 25 0 25 -50 0 -50 0 0 25 0
25 -50 0 -50 0 0 25 0 25 -50 0 -50 0 0 25 0 25 -80 0 -80 0 0 25 0 25 -50 0
-50 0 0 25 0 25 -50 0 -50 0 0 25 0 25 -50 0 -50 0 0 30 0 30 -50 0 -50 0 0
25 0 25 -50 0 -50 0 0 25 0 25 -50 0 -50 0 0 25 c0 20 -5 25 -25 25 -20 0 -25
5 -25 25 l0 25 -55 0 -55 0 0 25 0 25 -50 0 -50 0 0 25 c0 20 -5 25 -25 25
-20 0 -25 5 -25 25 l0 25 -50 0 -50 0 0 25 c0 20 -5 25 -25 25 -20 0 -25 5
-25 25 0 20 -5 25 -25 25 -20 0 -25 5 -25 25 0 20 -5 25 -25 25 -20 0 -25 5
-25 25 l0 25 -50 0 -50 0 0 25 c0 20 -5 25 -25 25 -20 0 -25 5 -25 25 0 20 -5
25 -25 25 -20 0 -25 5 -25 25 0 20 -5 25 -25 25 -20 0 -25 5 -25 25 0 20 -5
25 -25 25 l-25 0 0 30 0 30 -30 0 -30 0 0 25 c0 20 -5 25 -25 25 l-25 0 0 50
0 50 -25 0 c-20 0 -25 5 -25 25 0 20 -5 25 -25 25 -20 0 -25 5 -25 25 0 20 -5
25 -25 25 l-25 0 0 50 0 50 -25 0 c-20 0 -25 5 -25 25 l0 25 -50 0 -50 0 0
-25 c0 -20 5 -25 25 -25 20 0 25 -5 25 -25 0 -20 5 -25 25 -25 l25 0 0 -50 0
-50 25 0 25 0 0 -50 0 -50 25 0 c20 0 25 -5 25 -25 0 -20 5 -25 25 -25 20 0
25 -5 25 -25 0 -20 5 -25 25 -25 l25 0 0 -55 0 -55 25 0 c20 0 25 -5 25 -25
l0 -25 30 0 30 0 0 -25 c0 -20 5 -25 25 -25 20 0 25 -5 25 -25 0 -20 5 -25 25
-25 20 0 25 -5 25 -25 0 -20 5 -25 25 -25 20 0 25 -5 25 -25 0 -20 5 -25 25
-25 20 0 25 -5 25 -25 0 -20 5 -25 25 -25 20 0 25 -5 25 -25 0 -20 5 -25 25
-25 20 0 25 -5 25 -25 0 -20 5 -25 25 -25 l25 0 0 -50 0 -50 25 0 c20 0 25 -5
25 -25 0 -20 5 -25 25 -25 20 0 25 -5 25 -25 0 -20 5 -25 25 -25 l25 0 0 -50
0 -50 25 0 25 0 0 -30 0 -30 25 0 c20 0 25 -5 25 -25 0 -20 5 -25 25 -25 20 0
25 -5 25 -25 0 -20 5 -25 25 -25 20 0 25 -5 25 -25 l0 -25 55 0 55 0 0 -25 c0
-20 5 -25 25 -25 l25 0 0 -50 0 -50 25 0 c20 0 25 -5 25 -25 0 -20 5 -25 25
-25 20 0 25 -5 25 -25 0 -20 5 -25 25 -25 l25 0 0 -50 0 -50 25 0 c20 0 25 -5
25 -25 0 -20 5 -25 25 -25 20 0 25 -5 25 -25 0 -20 5 -25 25 -25 20 0 25 -5
25 -25 0 -20 5 -25 25 -25 20 0 25 -5 25 -25 0 -20 5 -25 25 -25 l25 0 0 -30
0 -30 25 0 c20 0 25 -5 25 -25 0 -20 5 -25 25 -25 20 0 25 -5 25 -25 0 -20 5
-25 25 -25 20 0 25 -5 25 -25 l0 -25 50 0 50 0 0 -50 0 -50 25 0 c20 0 25 -5
25 -25 l0 -25 30 0 30 0 0 -50 0 -50 25 0 c20 0 25 -5 25 -25 0 -20 5 -25 25
-25 20 0 25 -5 25 -25 0 -20 5 -25 25 -25 20 0 25 -5 25 -25 0 -20 5 -25 25
-25 20 0 25 -5 25 -25 0 -20 5 -25 25 -25 20 0 25 -5 25 -25 l0 -25 50 0 50 0
0 -25 c0 -20 5 -25 25 -25 20 0 25 -5 25 -25 l0 -25 50 0 50 0 0 -30 0 -30 25
0 c20 0 25 -5 25 -25 l0 -25 50 0 50 0 0 -25 0 -25 50 0 50 0 0 -25 0 -25 80
0 80 0 0 -25 0 -25 50 0 50 0 0 -25 0 -25 75 0 75 0 0 -25 0 -25 75 0 75 0 0
-25 0 -25 100 0 100 0 0 -25 0 -25 55 0 55 0 0 -25 0 -25 75 0 75 0 0 -25 c0
-20 5 -25 25 -25 20 0 25 -5 25 -25 0 -20 5 -25 25 -25 20 0 25 -5 25 -25 0
-20 5 -25 25 -25 20 0 25 -5 25 -25 0 -20 5 -25 25 -25 20 0 25 -5 25 -25 l0
-25 50 0 50 0 0 25 c0 20 5 25 25 25 20 0 25 5 25 25 0 20 5 25 25 25 20 0 25
5 25 25 0 20 5 25 25 25 20 0 25 5 25 25 l0 25 50 0 50 0 0 25 0 25 55 0 55 0
0 25 0 25 50 0 50 0 0 25 0 25 100 0 100 0 0 25 0 25 75 0 75 0 0 25 0 25 75
0 75 0 0 25 0 25 50 0 50 0 0 25 0 25 80 0 80 0 0 25 0 25 50 0 50 0 0 25 0
25 50 0 50 0 0 25 c0 20 5 25 25 25 l25 0 0 30 0 30 50 0 50 0 0 25 c0 20 5
25 25 25 20 0 25 5 25 25 l0 25 50 0 50 0 0 25 c0 20 5 25 25 25 20 0 25 5 25
25 0 20 5 25 25 25 20 0 25 5 25 25 0 20 5 25 25 25 20 0 25 5 25 25 l0 25 30
0 30 0 0 25 c0 20 5 25 25 25 l25 0 0 50 0 50 25 0 c20 0 25 5 25 25 0 20 5
25 25 25 20 0 25 5 25 25 0 20 5 25 25 25 20 0 25 5 25 25 0 20 5 25 25 25 20
0 25 5 25 25 0 20 5 25 25 25 20 0 25 5 25 25 0 20 5 25 25 25 20 0 25 5 25
25 0 20 5 25 25 25 l25 0 0 30 0 30 25 0 c20 0 25 5 25 25 0 20 5 25 25 25 20
0 25 5 25 25 0 20 5 25 25 25 20 0 25 5 25 25 0 20 5 25 25 25 20 0 25 5 25
25 0 20 5 25 25 25 20 0 25 5 25 25 0 20 5 25 25 25 l25 0 0 50 0 50 25 0 c20
0 25 5 25 25 l0 25 30 0 30 0 0 50 0 50 50 0 50 0 0 25 c0 20 5 25 25 25 20 0
25 5 25 25 0 20 5 25 25 25 20 0 25 5 25 25 0 20 5 25 25 25 20 0 25 5 25 25
0 20 5 25 25 25 l25 0 0 30 0 30 25 0 25 0 0 50 0 50 25 0 c20 0 25 5 25 25 0
20 5 25 25 25 20 0 25 5 25 25 0 20 5 25 25 25 l25 0 0 50 0 50 25 0 c20 0 25
5 25 25 0 20 5 25 25 25 20 0 25 5 25 25 0 20 5 25 25 25 20 0 25 5 25 25 0
20 5 25 25 25 20 0 25 5 25 25 0 20 5 25 25 25 20 0 25 5 25 25 l0 25 30 0 30
0 0 25 c0 20 5 25 25 25 20 0 25 5 25 25 0 20 5 25 25 25 20 0 25 5 25 25 0
20 5 25 25 25 20 0 25 5 25 25 0 20 5 25 25 25 l25 0 0 55 0 55 25 0 c20 0 25
5 25 25 0 20 5 25 25 25 l25 0 0 50 0 50 25 0 c20 0 25 5 25 25 0 20 5 25 25
25 l25 0 0 50 0 50 25 0 c20 0 25 5 25 25 l0 25 -50 0 -50 0 0 -25 c0 -20 -5
-25 -25 -25 l-25 0 0 50 0 50 25 0 c20 0 25 5 25 25 0 20 5 25 25 25 l25 0 0
50 0 50 25 0 25 0 0 50 0 50 25 0 25 0 0 80 0 80 -25 0 -25 0 0 -55 0 -55 -25
0 -25 0 0 -50 0 -50 -25 0 c-20 0 -25 -5 -25 -25 0 -20 -5 -25 -25 -25 -20 0
-25 -5 -25 -25 0 -20 -5 -25 -25 -25 -20 0 -25 -5 -25 -25 0 -20 -5 -25 -25
-25 -20 0 -25 -5 -25 -25 0 -20 -5 -25 -25 -25 -20 0 -25 -5 -25 -25 0 -20 -5
-25 -25 -25 -20 0 -25 -5 -25 -25 0 -20 -5 -25 -25 -25 -20 0 -25 -5 -25 -25
0 -20 -5 -25 -25 -25 -20 0 -25 -5 -25 -25 l0 -25 -30 0 -30 0 0 -25 c0 -20
-5 -25 -25 -25 -20 0 -25 -5 -25 -25 0 -20 -5 -25 -25 -25 -20 0 -25 -5 -25
-25 l0 -25 -50 0 -50 0 0 -25 c0 -20 -5 -25 -25 -25 -20 0 -25 -5 -25 -25 l0
-25 -50 0 -50 0 0 -30 0 -30 -25 0 c-20 0 -25 -5 -25 -25 l0 -25 -50 0 -50 0
0 -25 0 -25 -50 0 -50 0 0 -25 c0 -20 -5 -25 -25 -25 -20 0 -25 -5 -25 -25 l0
-25 -50 0 -50 0 0 -25 0 -25 -55 0 -55 0 0 -25 0 -25 -50 0 -50 0 0 -25 c0
-20 -5 -25 -25 -25 -20 0 -25 -5 -25 -25 l0 -25 -50 0 -50 0 0 -25 0 -25 -50
0 -50 0 0 -25 0 -25 -50 0 -50 0 0 -25 0 -25 -50 0 -50 0 0 -25 0 -25 -50 0
-50 0 0 -25 0 -25 -80 0 -80 0 0 -25 0 -25 -50 0 -50 0 0 -25 0 -25 -50 0 -50
0 0 -30 0 -30 -50 0 -50 0 0 -25 0 -25 -50 0 -50 0 0 -25 0 -25 -50 0 -50 0 0
-25 0 -25 -75 0 -75 0 0 -25 0 -25 -55 0 -55 0 0 -25 0 -25 -50 0 -50 0 0 -25
0 -25 -50 0 -50 0 0 -25 c0 -20 -5 -25 -25 -25 -20 0 -25 -5 -25 -25 0 -20 -5
-25 -25 -25 -20 0 -25 -5 -25 -25 0 -20 -5 -25 -25 -25 -20 0 -25 -5 -25 -25
0 -20 -5 -25 -25 -25 -20 0 -25 -5 -25 -25 0 -20 -5 -25 -25 -25 -20 0 -25 -5
-25 -25 0 -20 -5 -25 -25 -25 -20 0 -25 -5 -25 -25 0 -20 -5 -25 -25 -25 -20
0 -25 -5 -25 -25 0 -20 -5 -25 -25 -25 l-25 0 0 -55 0 -55 -25 0 c-20 0 -25
-5 -25 -25 0 -20 -5 -25 -25 -25 l-25 0 0 -50 0 -50 -25 0 -25 0 0 -50 0 -50
-30 0 -30 0 0 -75 0 -75 -25 0 -25 0 0 -50 0 -50 -25 0 -25 0 0 -50 0 -50 -25
0 -25 0 0 -50 0 -50 -25 0 -25 0 0 -55 0 -55 -25 0 -25 0 0 -50 0 -50 -50 0
-50 0 0 50 0 50 -25 0 -25 0 0 55 0 55 -25 0 -25 0 0 50 0 50 -25 0 -25 0 0
75 0 75 -25 0 -25 0 0 50 0 50 -25 0 -25 0 0 50 0 50 -25 0 -25 0 0 50 0 50
-25 0 -25 0 0 50 0 50 -30 0 -30 0 0 25 c0 20 -5 25 -25 25 l-25 0 0 55 0 55
-25 0 c-20 0 -25 5 -25 25 0 20 -5 25 -25 25 -20 0 -25 5 -25 25 0 20 -5 25
-25 25 l-25 0 0 50 0 50 -50 0 -50 0 0 25 c0 20 -5 25 -25 25 -20 0 -25 5 -25
25 0 20 -5 25 -25 25 -20 0 -25 5 -25 25 0 20 -5 25 -25 25 -20 0 -25 5 -25
25 l0 25 -50 0 -50 0 0 25 0 25 -50 0 -50 0 0 25 0 25 -50 0 -50 0 0 25 0 25
-80 0 -80 0 0 25 0 25 -50 0 -50 0 0 25 0 25 -50 0 -50 0 0 25 0 25 -50 0 -50
0 0 30 0 30 -50 0 -50 0 0 25 0 25 -50 0 -50 0 0 25 0 25 -75 0 -75 0 0 25 0
25 -55 0 -55 0 0 25 0 25 -50 0 -50 0 0 25 0 25 -50 0 -50 0 0 25 0 25 -50 0
-50 0 0 25 c0 20 -5 25 -25 25 -20 0 -25 5 -25 25 l0 25 -50 0 -50 0 0 25 0
25 -50 0 -50 0 0 25 0 25 -50 0 -50 0 0 25 0 25 -55 0 -55 0 0 25 c0 20 -5 25
-25 25 -20 0 -25 5 -25 25 l0 25 -50 0 -50 0 0 25 0 25 -50 0 -50 0 0 25 c0
20 -5 25 -25 25 l-25 0 0 30 0 30 -50 0 -50 0 0 25 c0 20 -5 25 -25 25 -20 0
-25 5 -25 25 0 20 -5 25 -25 25 -20 0 -25 5 -25 25 l0 25 -50 0 -50 0 0 25 c0
20 -5 25 -25 25 -20 0 -25 5 -25 25 0 20 -5 25 -25 25 -20 0 -25 5 -25 25 0
20 -5 25 -25 25 -20 0 -25 5 -25 25 l0 25 -30 0 -30 0 0 25 c0 20 -5 25 -25
25 -20 0 -25 5 -25 25 0 20 -5 25 -25 25 -20 0 -25 5 -25 25 0 20 -5 25 -25
25 -20 0 -25 5 -25 25 0 20 -5 25 -25 25 -20 0 -25 5 -25 25 0 20 -5 25 -25
25 l-25 0 0 50 0 50 -25 0 c-20 0 -25 5 -25 25 0 20 -5 25 -25 25 l-25 0 0 55
0 55 -25 0 -25 0 0 -80z m1160 -1515 c0 -20 5 -25 25 -25 20 0 25 -5 25 -25
l0 -25 55 0 55 0 0 -30 0 -30 50 0 50 0 0 -25 0 -25 50 0 50 0 0 -25 0 -25 50
0 50 0 0 -25 0 -25 50 0 50 0 0 -25 0 -25 50 0 50 0 0 -25 0 -25 50 0 50 0 0
-25 0 -25 50 0 50 0 0 -25 0 -25 55 0 55 0 0 -25 0 -25 50 0 50 0 0 -25 0 -25
50 0 50 0 0 -25 0 -25 50 0 50 0 0 -25 0 -25 50 0 50 0 0 -25 0 -25 50 0 50 0
0 -25 0 -25 50 0 50 0 0 -25 0 -25 50 0 50 0 0 -30 0 -30 55 0 55 0 0 -25 c0
-20 5 -25 25 -25 20 0 25 -5 25 -25 l0 -25 50 0 50 0 0 -25 c0 -20 5 -25 25
-25 20 0 25 -5 25 -25 0 -20 5 -25 25 -25 20 0 25 -5 25 -25 0 -20 -5 -25 -25
-25 -20 0 -25 5 -25 25 l0 25 -50 0 -50 0 0 25 0 25 -50 0 -50 0 0 25 0 25
-80 0 -80 0 0 25 0 25 -50 0 -50 0 0 25 0 25 -75 0 -75 0 0 30 0 30 -50 0 -50
0 0 25 0 25 -75 0 -75 0 0 25 0 25 -50 0 -50 0 0 25 0 25 -50 0 -50 0 0 25 0
25 -55 0 -55 0 0 25 0 25 -50 0 -50 0 0 25 0 25 -50 0 -50 0 0 25 c0 20 -5 25
-25 25 -20 0 -25 5 -25 25 l0 25 -50 0 -50 0 0 25 c0 20 -5 25 -25 25 -20 0
-25 5 -25 25 l0 25 -50 0 -50 0 0 25 c0 20 -5 25 -25 25 -20 0 -25 5 -25 25
l0 25 -50 0 -50 0 0 25 c0 20 -5 25 -25 25 -20 0 -25 5 -25 25 l0 25 -30 0
-30 0 0 30 0 30 -25 0 c-20 0 -25 5 -25 25 0 20 -5 25 -25 25 -20 0 -25 5 -25
25 0 20 5 25 25 25 20 0 25 -5 25 -25z m5930 0 c0 -20 -5 -25 -25 -25 -20 0
-25 -5 -25 -25 0 -20 -5 -25 -25 -25 l-25 0 0 -30 0 -30 -25 0 c-20 0 -25 -5
-25 -25 0 -20 -5 -25 -25 -25 -20 0 -25 -5 -25 -25 l0 -25 -55 0 -55 0 0 -25
c0 -20 -5 -25 -25 -25 -20 0 -25 -5 -25 -25 0 -20 -5 -25 -25 -25 -20 0 -25
-5 -25 -25 l0 -25 -50 0 -50 0 0 -25 0 -25 -50 0 -50 0 0 -25 c0 -20 -5 -25
-25 -25 -20 0 -25 -5 -25 -25 l0 -25 -50 0 -50 0 0 -25 0 -25 -50 0 -50 0 0
-25 0 -25 -50 0 -50 0 0 -25 0 -25 -55 0 -55 0 0 -25 0 -25 -50 0 -50 0 0 -25
0 -25 -75 0 -75 0 0 -25 0 -25 -50 0 -50 0 0 -30 0 -30 -75 0 -75 0 0 -25 0
-25 -50 0 -50 0 0 -25 0 -25 -75 0 -75 0 0 -25 0 -25 -55 0 -55 0 0 -25 0 -25
-50 0 -50 0 0 25 c0 20 5 25 25 25 20 0 25 5 25 25 l0 25 50 0 50 0 0 25 0 25
30 0 30 0 0 25 0 25 50 0 50 0 0 30 0 30 50 0 50 0 0 25 0 25 50 0 50 0 0 25
0 25 50 0 50 0 0 25 0 25 50 0 50 0 0 25 0 25 50 0 50 0 0 25 0 25 50 0 50 0
0 25 0 25 55 0 55 0 0 25 0 25 50 0 50 0 0 25 0 25 50 0 50 0 0 25 0 25 50 0
50 0 0 25 0 25 50 0 50 0 0 25 0 25 50 0 50 0 0 25 0 25 50 0 50 0 0 25 0 25
50 0 50 0 0 25 0 25 55 0 55 0 0 30 0 30 50 0 50 0 0 25 c0 20 5 25 25 25 20
0 25 5 25 25 0 20 5 25 25 25 20 0 25 -5 25 -25z m-5420 -610 l0 -25 50 0 50
0 0 -25 c0 -20 5 -25 25 -25 20 0 25 -5 25 -25 l0 -25 50 0 50 0 0 -25 0 -25
50 0 50 0 0 -25 0 -25 80 0 80 0 0 -30 0 -30 50 0 50 0 0 -25 0 -25 50 0 50 0
0 -25 0 -25 75 0 75 0 0 -25 0 -25 75 0 75 0 0 -25 0 -25 75 0 75 0 0 -25 0
-25 80 0 80 0 0 -25 0 -25 50 0 50 0 0 -25 0 -25 50 0 50 0 0 -25 0 -25 50 0
50 0 0 -25 c0 -20 5 -25 25 -25 20 0 25 -5 25 -25 0 -20 5 -25 25 -25 l25 0 0
-50 0 -50 25 0 c20 0 25 -5 25 -25 0 -20 5 -25 25 -25 20 0 25 -5 25 -25 0
-20 -5 -25 -25 -25 -20 0 -25 5 -25 25 l0 25 -75 0 -75 0 0 25 0 25 -50 0 -50
0 0 25 0 25 -75 0 -75 0 0 25 0 25 -75 0 -75 0 0 25 0 25 -55 0 -55 0 0 25 0
25 -75 0 -75 0 0 25 0 25 -50 0 -50 0 0 25 0 25 -50 0 -50 0 0 25 0 25 -50 0
-50 0 0 25 0 25 -50 0 -50 0 0 25 0 25 -50 0 -50 0 0 25 c0 20 -5 25 -25 25
-20 0 -25 5 -25 25 l0 25 -55 0 -55 0 0 25 c0 20 -5 25 -25 25 l-25 0 0 30 0
30 -25 0 c-20 0 -25 5 -25 25 l0 25 -50 0 -50 0 0 25 c0 20 -5 25 -25 25 -20
0 -25 5 -25 25 0 20 -5 25 -25 25 -20 0 -25 5 -25 25 0 20 -5 25 -25 25 -20 0
-25 5 -25 25 0 20 5 25 25 25 20 0 25 -5 25 -25z m4910 0 c0 -20 -5 -25 -25
-25 -20 0 -25 -5 -25 -25 0 -20 -5 -25 -25 -25 -20 0 -25 -5 -25 -25 0 -20 -5
-25 -25 -25 -20 0 -25 -5 -25 -25 l0 -25 -50 0 -50 0 0 -25 c0 -20 -5 -25 -25
-25 l-25 0 0 -30 0 -30 -25 0 c-20 0 -25 -5 -25 -25 l0 -25 -50 0 -50 0 0 -25
c0 -20 -5 -25 -25 -25 -20 0 -25 -5 -25 -25 l0 -25 -55 0 -55 0 0 -25 0 -25
-50 0 -50 0 0 -25 0 -25 -50 0 -50 0 0 -25 0 -25 -50 0 -50 0 0 -25 0 -25 -50
0 -50 0 0 -25 0 -25 -75 0 -75 0 0 -25 0 -25 -50 0 -50 0 0 -25 0 -25 -80 0
-80 0 0 -25 0 -25 -75 0 -75 0 0 -25 0 -25 -50 0 -50 0 0 -25 0 -25 -75 0 -75
0 0 -25 c0 -20 -5 -25 -25 -25 -20 0 -25 5 -25 25 0 20 5 25 25 25 20 0 25 5
25 25 0 20 5 25 25 25 l25 0 0 50 0 50 25 0 c20 0 25 5 25 25 0 20 5 25 25 25
20 0 25 5 25 25 l0 25 50 0 50 0 0 25 0 25 50 0 50 0 0 25 0 25 80 0 80 0 0
25 0 25 50 0 50 0 0 25 0 25 75 0 75 0 0 25 0 25 75 0 75 0 0 25 0 25 75 0 75
0 0 25 0 25 50 0 50 0 0 25 0 25 80 0 80 0 0 30 0 30 50 0 50 0 0 25 0 25 50
0 50 0 0 25 0 25 50 0 50 0 0 25 0 25 50 0 50 0 0 25 c0 20 5 25 25 25 20 0
25 5 25 25 0 20 5 25 25 25 20 0 25 -5 25 -25z m-4300 -660 l0 -25 50 0 50 0
0 -25 0 -25 50 0 50 0 0 -25 0 -25 75 0 75 0 0 -25 0 -25 50 0 50 0 0 -25 0
-25 80 0 80 0 0 -25 0 -25 75 0 75 0 0 -25 0 -25 75 0 75 0 0 -25 0 -25 75 0
75 0 0 -30 0 -30 50 0 50 0 0 -25 0 -25 50 0 50 0 0 -25 c0 -20 5 -25 25 -25
20 0 25 -5 25 -25 0 -20 5 -25 25 -25 20 0 25 -5 25 -25 l0 -25 30 0 30 0 0
-25 c0 -20 5 -25 25 -25 20 0 25 -5 25 -25 0 -20 -5 -25 -25 -25 -20 0 -25 5
-25 25 l0 25 -80 0 -80 0 0 25 0 25 -75 0 -75 0 0 25 0 25 -75 0 -75 0 0 25 0
25 -50 0 -50 0 0 25 0 25 -75 0 -75 0 0 25 0 25 -50 0 -50 0 0 30 0 30 -55 0
-55 0 0 25 0 25 -50 0 -50 0 0 25 0 25 -50 0 -50 0 0 25 c0 20 -5 25 -25 25
-20 0 -25 5 -25 25 l0 25 -50 0 -50 0 0 25 c0 20 -5 25 -25 25 -20 0 -25 5
-25 25 l0 25 -50 0 -50 0 0 25 c0 20 -5 25 -25 25 -20 0 -25 5 -25 25 0 20 5
25 25 25 20 0 25 -5 25 -25z m3690 0 c0 -20 -5 -25 -25 -25 -20 0 -25 -5 -25
-25 l0 -25 -50 0 -50 0 0 -25 c0 -20 -5 -25 -25 -25 -20 0 -25 -5 -25 -25 l0
-25 -50 0 -50 0 0 -25 c0 -20 -5 -25 -25 -25 -20 0 -25 -5 -25 -25 l0 -25 -50
0 -50 0 0 -25 0 -25 -50 0 -50 0 0 -25 0 -25 -50 0 -50 0 0 -30 0 -30 -55 0
-55 0 0 -25 0 -25 -75 0 -75 0 0 -25 0 -25 -50 0 -50 0 0 -25 0 -25 -75 0 -75
0 0 -25 0 -25 -75 0 -75 0 0 -25 0 -25 -50 0 -50 0 0 -25 0 -25 -50 0 -50 0 0
25 c0 20 5 25 25 25 20 0 25 5 25 25 0 20 5 25 25 25 20 0 25 5 25 25 0 20 5
25 25 25 20 0 25 5 25 25 0 20 5 25 25 25 20 0 25 5 25 25 l0 25 50 0 50 0 0
25 0 25 50 0 50 0 0 30 0 30 75 0 75 0 0 25 0 25 75 0 75 0 0 25 0 25 80 0 80
0 0 25 0 25 75 0 75 0 0 25 0 25 50 0 50 0 0 25 0 25 75 0 75 0 0 25 0 25 50
0 50 0 0 25 0 25 50 0 50 0 0 25 c0 20 5 25 25 25 20 0 25 -5 25 -25z"/>
<path d="M10730 13870 l0 -50 80 0 80 0 0 -25 0 -25 1190 0 1190 0 0 25 0 25
75 0 75 0 0 50 0 50 -1345 0 -1345 0 0 -50z"/>
<path d="M10990 13595 c0 -20 5 -25 25 -25 20 0 25 -5 25 -25 l0 -25 75 0 75
0 0 -25 0 -25 885 0 885 0 0 25 0 25 75 0 75 0 0 25 c0 20 5 25 25 25 20 0 25
5 25 25 l0 25 -1085 0 -1085 0 0 -25z"/>
<path d="M15040 12225 l0 -25 -100 0 -100 0 0 -25 0 -25 -55 0 -55 0 0 -25 0
-25 -50 0 -50 0 0 -25 0 -25 -50 0 -50 0 0 -25 c0 -20 -5 -25 -25 -25 -20 0
-25 -5 -25 -25 0 -20 -5 -25 -25 -25 -20 0 -25 -5 -25 -25 0 -20 -5 -25 -25
-25 -20 0 -25 -5 -25 -25 0 -20 -5 -25 -25 -25 -20 0 -25 -5 -25 -25 0 -20 -5
-25 -25 -25 -20 0 -25 -5 -25 -25 0 -20 -5 -25 -25 -25 -20 0 -25 -5 -25 -25
0 -20 -5 -25 -25 -25 l-25 0 0 -55 0 -55 -25 0 -25 0 0 -50 0 -50 -25 0 -25 0
0 -50 0 -50 -25 0 -25 0 0 -75 0 -75 -30 0 -30 0 0 -125 0 -125 -25 0 -25 0 0
-205 0 -205 25 0 25 0 0 -150 0 -150 30 0 30 0 0 -75 0 -75 25 0 25 0 0 -50 0
-50 25 0 25 0 0 -55 0 -55 25 0 25 0 0 -50 0 -50 25 0 c20 0 25 -5 25 -25 0
-20 5 -25 25 -25 20 0 25 -5 25 -25 0 -20 5 -25 25 -25 20 0 25 -5 25 -25 0
-20 5 -25 25 -25 20 0 25 -5 25 -25 0 -20 5 -25 25 -25 20 0 25 -5 25 -25 0
-20 5 -25 25 -25 20 0 25 -5 25 -25 0 -20 5 -25 25 -25 20 0 25 -5 25 -25 l0
-25 50 0 50 0 0 -25 0 -25 50 0 50 0 0 -25 0 -25 55 0 55 0 0 -25 0 -25 100 0
100 0 0 -25 0 -25 275 0 275 0 0 25 0 25 105 0 105 0 0 25 0 25 50 0 50 0 0
25 0 25 50 0 50 0 0 25 0 25 50 0 50 0 0 25 c0 20 5 25 25 25 20 0 25 5 25 25
0 20 5 25 25 25 20 0 25 5 25 25 0 20 5 25 25 25 20 0 25 5 25 25 0 20 5 25
25 25 20 0 25 5 25 25 0 20 5 25 25 25 20 0 25 5 25 25 l0 25 30 0 30 0 0 25
c0 20 5 25 25 25 l25 0 0 50 0 50 25 0 25 0 0 55 0 55 25 0 25 0 0 50 0 50 25
0 25 0 0 75 0 75 25 0 25 0 0 100 0 100 25 0 25 0 0 280 0 280 -25 0 -25 0 0
125 0 125 -25 0 -25 0 0 75 0 75 -25 0 -25 0 0 50 0 50 -25 0 c-20 0 -25 5
-25 25 0 20 -5 25 -25 25 l-25 0 0 55 0 55 -25 0 c-20 0 -25 5 -25 25 l0 25
-30 0 -30 0 0 25 c0 20 -5 25 -25 25 -20 0 -25 5 -25 25 0 20 -5 25 -25 25
-20 0 -25 5 -25 25 0 20 -5 25 -25 25 -20 0 -25 5 -25 25 0 20 -5 25 -25 25
-20 0 -25 5 -25 25 0 20 -5 25 -25 25 -20 0 -25 5 -25 25 0 20 -5 25 -25 25
-20 0 -25 5 -25 25 l0 25 -50 0 -50 0 0 25 0 25 -50 0 -50 0 0 25 0 25 -100 0
-100 0 0 25 0 25 -305 0 -305 0 0 -25z m500 -200 l0 -25 55 0 55 0 0 -25 0
-25 50 0 50 0 0 -25 c0 -20 5 -25 25 -25 20 0 25 -5 25 -25 0 -20 5 -25 25
-25 20 0 25 -5 25 -25 0 -20 5 -25 25 -25 20 0 25 -5 25 -25 0 -20 5 -25 25
-25 20 0 25 -5 25 -25 0 -20 5 -25 25 -25 l25 0 0 -55 0 -55 25 0 25 0 0 -75
0 -75 25 0 25 0 0 -75 0 -75 25 0 25 0 0 -200 0 -200 25 0 25 0 0 -180 0 -180
-25 0 -25 0 0 -175 0 -175 -25 0 -25 0 0 -75 0 -75 -25 0 -25 0 0 -55 0 -55
-25 0 -25 0 0 -50 0 -50 -25 0 c-20 0 -25 -5 -25 -25 0 -20 -5 -25 -25 -25
-20 0 -25 -5 -25 -25 0 -20 -5 -25 -25 -25 -20 0 -25 -5 -25 -25 0 -20 -5 -25
-25 -25 -20 0 -25 -5 -25 -25 0 -20 -5 -25 -25 -25 -20 0 -25 -5 -25 -25 l0
-25 -50 0 -50 0 0 -25 0 -25 -80 0 -80 0 0 -25 0 -25 -175 0 -175 0 0 25 0 25
-75 0 -75 0 0 25 0 25 -50 0 -50 0 0 25 c0 20 -5 25 -25 25 -20 0 -25 5 -25
25 l0 25 -30 0 -30 0 0 25 c0 20 -5 25 -25 25 l-25 0 0 50 0 50 -25 0 c-20 0
-25 5 -25 25 0 20 -5 25 -25 25 l-25 0 0 50 0 50 -25 0 -25 0 0 80 0 80 -25 0
-25 0 0 100 0 100 -25 0 -25 0 0 455 0 455 25 0 25 0 0 100 0 100 25 0 25 0 0
50 0 50 25 0 25 0 0 55 0 55 25 0 25 0 0 50 0 50 25 0 c20 0 25 5 25 25 0 20
5 25 25 25 20 0 25 5 25 25 l0 25 30 0 30 0 0 25 c0 20 5 25 25 25 20 0 25 5
25 25 l0 25 50 0 50 0 0 25 0 25 50 0 50 0 0 25 0 25 225 0 225 0 0 -25z"/>
<path d="M18030 12225 l0 -25 -105 0 -105 0 0 -25 0 -25 -50 0 -50 0 0 -25 0
-25 -50 0 -50 0 0 -25 c0 -20 -5 -25 -25 -25 -20 0 -25 -5 -25 -25 l0 -25 -50
0 -50 0 0 -25 c0 -20 -5 -25 -25 -25 -20 0 -25 -5 -25 -25 0 -20 -5 -25 -25
-25 -20 0 -25 -5 -25 -25 0 -20 -5 -25 -25 -25 -20 0 -25 -5 -25 -25 0 -20 -5
-25 -25 -25 -20 0 -25 -5 -25 -25 0 -20 -5 -25 -25 -25 l-25 0 0 -50 0 -50
-30 0 -30 0 0 -30 0 -30 -25 0 -25 0 0 -50 0 -50 -25 0 -25 0 0 -50 0 -50 -25
0 -25 0 0 -75 0 -75 -25 0 -25 0 0 -200 0 -200 -25 0 -25 0 0 -80 0 -80 25 0
25 0 0 -175 0 -175 25 0 25 0 0 -100 0 -100 25 0 25 0 0 -50 0 -50 25 0 25 0
0 -55 0 -55 25 0 25 0 0 -50 0 -50 30 0 30 0 0 -25 c0 -20 5 -25 25 -25 20 0
25 -5 25 -25 0 -20 5 -25 25 -25 20 0 25 -5 25 -25 0 -20 5 -25 25 -25 20 0
25 -5 25 -25 0 -20 5 -25 25 -25 20 0 25 -5 25 -25 0 -20 5 -25 25 -25 20 0
25 -5 25 -25 0 -20 5 -25 25 -25 20 0 25 -5 25 -25 l0 -25 50 0 50 0 0 -25 0
-25 50 0 50 0 0 -25 0 -25 50 0 50 0 0 -25 0 -25 105 0 105 0 0 -25 0 -25 275
0 275 0 0 25 0 25 100 0 100 0 0 25 0 25 55 0 55 0 0 25 0 25 50 0 50 0 0 25
0 25 50 0 50 0 0 25 c0 20 5 25 25 25 20 0 25 5 25 25 0 20 5 25 25 25 20 0
25 5 25 25 0 20 5 25 25 25 20 0 25 5 25 25 0 20 5 25 25 25 20 0 25 5 25 25
0 20 5 25 25 25 20 0 25 5 25 25 0 20 5 25 25 25 20 0 25 5 25 25 0 20 5 25
25 25 l25 0 0 50 0 50 25 0 c20 0 25 5 25 25 0 20 5 25 25 25 l25 0 0 80 0 80
25 0 25 0 0 50 0 50 30 0 30 0 0 100 0 100 25 0 25 0 0 330 0 330 -25 0 -25 0
0 100 0 100 -30 0 -30 0 0 75 0 75 -25 0 -25 0 0 50 0 50 -25 0 -25 0 0 55 0
55 -25 0 c-20 0 -25 5 -25 25 0 20 -5 25 -25 25 -20 0 -25 5 -25 25 0 20 -5
25 -25 25 l-25 0 0 50 0 50 -25 0 c-20 0 -25 5 -25 25 0 20 -5 25 -25 25 -20
0 -25 5 -25 25 l0 25 -50 0 -50 0 0 25 c0 20 -5 25 -25 25 -20 0 -25 5 -25 25
0 20 -5 25 -25 25 -20 0 -25 5 -25 25 l0 25 -50 0 -50 0 0 25 0 25 -50 0 -50
0 0 25 0 25 -105 0 -105 0 0 25 0 25 -300 0 -300 0 0 -25z m500 -200 l0 -25
50 0 50 0 0 -25 0 -25 50 0 50 0 0 -25 c0 -20 5 -25 25 -25 20 0 25 -5 25 -25
l0 -25 30 0 30 0 0 -25 c0 -20 5 -25 25 -25 20 0 25 -5 25 -25 0 -20 5 -25 25
-25 20 0 25 -5 25 -25 0 -20 5 -25 25 -25 l25 0 0 -55 0 -55 25 0 25 0 0 -50
0 -50 25 0 25 0 0 -100 0 -100 25 0 25 0 0 -150 0 -150 25 0 25 0 0 -255 0
-255 -25 0 -25 0 0 -150 0 -150 -25 0 -25 0 0 -75 0 -75 -25 0 -25 0 0 -55 0
-55 -25 0 -25 0 0 -50 0 -50 -25 0 c-20 0 -25 -5 -25 -25 0 -20 -5 -25 -25
-25 -20 0 -25 -5 -25 -25 0 -20 -5 -25 -25 -25 -20 0 -25 -5 -25 -25 l0 -25
-30 0 -30 0 0 -25 c0 -20 -5 -25 -25 -25 -20 0 -25 -5 -25 -25 l0 -25 -50 0
-50 0 0 -25 0 -25 -75 0 -75 0 0 -25 0 -25 -175 0 -175 0 0 25 0 25 -80 0 -80
0 0 25 c0 20 -5 25 -25 25 -20 0 -25 5 -25 25 l0 25 -50 0 -50 0 0 25 c0 20
-5 25 -25 25 -20 0 -25 5 -25 25 0 20 -5 25 -25 25 l-25 0 0 50 0 50 -25 0
c-20 0 -25 5 -25 25 0 20 -5 25 -25 25 l-25 0 0 80 0 80 -25 0 -25 0 0 50 0
50 -25 0 -25 0 0 100 0 100 -25 0 -25 0 0 455 0 455 25 0 25 0 0 75 0 75 25 0
25 0 0 75 0 75 25 0 25 0 0 55 0 55 25 0 25 0 0 50 0 50 25 0 c20 0 25 5 25
25 0 20 5 25 25 25 20 0 25 5 25 25 0 20 5 25 25 25 20 0 25 5 25 25 0 20 5
25 25 25 20 0 25 5 25 25 l0 25 50 0 50 0 0 25 0 25 55 0 55 0 0 25 0 25 225
0 225 0 0 -25z"/>
<path d="M1220 12125 l0 -75 125 0 125 0 0 -25 c0 -20 5 -25 25 -25 20 0 25
-5 25 -25 0 -20 5 -25 25 -25 l25 0 0 -1190 0 -1190 -25 0 c-20 0 -25 -5 -25
-25 0 -20 -5 -25 -25 -25 -20 0 -25 -5 -25 -25 l0 -25 -125 0 -125 0 0 -75 0
-75 605 0 605 0 0 75 0 75 -125 0 -125 0 0 25 c0 20 -5 25 -25 25 -20 0 -25 5
-25 25 0 20 -5 25 -25 25 -20 0 -25 5 -25 25 0 20 -5 25 -25 25 l-25 0 0 530
0 530 25 0 c20 0 25 -5 25 -25 0 -20 5 -25 25 -25 20 0 25 -5 25 -25 0 -20 5
-25 25 -25 20 0 25 -5 25 -25 0 -20 5 -25 25 -25 20 0 25 -5 25 -25 0 -20 5
-25 25 -25 20 0 25 -5 25 -25 0 -20 5 -25 25 -25 20 0 25 -5 25 -25 0 -20 5
-25 25 -25 20 0 25 -5 25 -25 0 -20 5 -25 25 -25 20 0 25 -5 25 -25 0 -20 5
-25 25 -25 20 0 25 -5 25 -25 0 -20 5 -25 25 -25 20 0 25 -5 25 -25 0 -20 5
-25 25 -25 20 0 25 -5 25 -25 0 -20 5 -25 25 -25 20 0 25 -5 25 -25 0 -20 5
-25 25 -25 20 0 25 -5 25 -25 0 -20 5 -25 25 -25 l25 0 0 -30 0 -30 25 0 c20
0 25 -5 25 -25 l0 -25 30 0 30 0 0 -25 c0 -20 5 -25 25 -25 20 0 25 -5 25 -25
0 -20 5 -25 25 -25 20 0 25 -5 25 -25 0 -20 5 -25 25 -25 20 0 25 -5 25 -25 0
-20 5 -25 25 -25 l25 0 0 -50 0 -50 25 0 c20 0 25 -5 25 -25 0 -20 -5 -25 -25
-25 l-25 0 0 -50 0 -50 -75 0 -75 0 0 -75 0 -75 680 0 680 0 0 75 0 75 -100 0
-100 0 0 25 0 25 -75 0 -75 0 0 25 0 25 -50 0 -50 0 0 25 c0 20 -5 25 -25 25
-20 0 -25 5 -25 25 0 20 -5 25 -25 25 -20 0 -25 5 -25 25 l0 25 -55 0 -55 0 0
25 c0 20 -5 25 -25 25 -20 0 -25 5 -25 25 0 20 -5 25 -25 25 -20 0 -25 5 -25
25 0 20 -5 25 -25 25 -20 0 -25 5 -25 25 0 20 -5 25 -25 25 -20 0 -25 5 -25
25 0 20 -5 25 -25 25 l-25 0 0 30 0 30 -25 0 c-20 0 -25 5 -25 25 0 20 -5 25
-25 25 -20 0 -25 5 -25 25 0 20 -5 25 -25 25 -20 0 -25 5 -25 25 0 20 -5 25
-25 25 -20 0 -25 5 -25 25 0 20 -5 25 -25 25 -20 0 -25 5 -25 25 0 20 -5 25
-25 25 -20 0 -25 5 -25 25 0 20 -5 25 -25 25 -20 0 -25 5 -25 25 0 20 -5 25
-25 25 -20 0 -25 5 -25 25 0 20 -5 25 -25 25 -20 0 -25 5 -25 25 0 20 -5 25
-25 25 -20 0 -25 5 -25 25 l0 25 -30 0 -30 0 0 25 c0 20 -5 25 -25 25 -20 0
-25 5 -25 25 0 20 -5 25 -25 25 -20 0 -25 5 -25 25 0 20 -5 25 -25 25 -20 0
-25 5 -25 25 0 20 -5 25 -25 25 -20 0 -25 5 -25 25 0 20 -5 25 -25 25 l-25 0
0 55 0 55 -25 0 -25 0 0 50 0 50 25 0 c20 0 25 5 25 25 0 20 5 25 25 25 20 0
25 5 25 25 0 20 5 25 25 25 20 0 25 5 25 25 0 20 5 25 25 25 20 0 25 5 25 25
0 20 5 25 25 25 20 0 25 5 25 25 0 20 5 25 25 25 20 0 25 5 25 25 l0 25 30 0
30 0 0 25 c0 20 5 25 25 25 20 0 25 5 25 25 0 20 5 25 25 25 20 0 25 5 25 25
0 20 5 25 25 25 20 0 25 5 25 25 0 20 5 25 25 25 20 0 25 5 25 25 0 20 5 25
25 25 20 0 25 5 25 25 0 20 5 25 25 25 l25 0 0 30 0 30 25 0 c20 0 25 5 25 25
0 20 5 25 25 25 20 0 25 5 25 25 0 20 5 25 25 25 20 0 25 5 25 25 0 20 5 25
25 25 20 0 25 5 25 25 0 20 5 25 25 25 20 0 25 5 25 25 l0 25 50 0 50 0 0 25
c0 20 5 25 25 25 20 0 25 5 25 25 l0 25 55 0 55 0 0 25 0 25 100 0 100 0 0 75
0 75 -535 0 -535 0 0 -75 0 -75 105 0 105 0 0 -25 c0 -20 5 -25 25 -25 l25 0
0 -50 0 -50 -25 0 -25 0 0 -50 0 -50 -25 0 c-20 0 -25 -5 -25 -25 0 -20 -5
-25 -25 -25 -20 0 -25 -5 -25 -25 0 -20 -5 -25 -25 -25 -20 0 -25 -5 -25 -25
l0 -25 -30 0 -30 0 0 -30 0 -30 -25 0 c-20 0 -25 -5 -25 -25 0 -20 -5 -25 -25
-25 -20 0 -25 -5 -25 -25 0 -20 -5 -25 -25 -25 -20 0 -25 -5 -25 -25 0 -20 -5
-25 -25 -25 -20 0 -25 -5 -25 -25 0 -20 -5 -25 -25 -25 -20 0 -25 -5 -25 -25
0 -20 -5 -25 -25 -25 -20 0 -25 -5 -25 -25 0 -20 -5 -25 -25 -25 -20 0 -25 -5
-25 -25 0 -20 -5 -25 -25 -25 -20 0 -25 -5 -25 -25 0 -20 -5 -25 -25 -25 -20
0 -25 -5 -25 -25 0 -20 -5 -25 -25 -25 -20 0 -25 -5 -25 -25 0 -20 -5 -25 -25
-25 -20 0 -25 -5 -25 -25 0 -20 -5 -25 -25 -25 -20 0 -25 -5 -25 -25 0 -20 -5
-25 -25 -25 -20 0 -25 -5 -25 -25 0 -20 -5 -25 -25 -25 -20 0 -25 -5 -25 -25
0 -20 -5 -25 -25 -25 l-25 0 0 505 0 505 25 0 c20 0 25 5 25 25 0 20 5 25 25
25 20 0 25 5 25 25 0 20 5 25 25 25 20 0 25 5 25 25 l0 25 125 0 125 0 0 75 0
75 -605 0 -605 0 0 -75z"/>
<path d="M4350 12125 l0 -75 130 0 130 0 0 -25 c0 -20 5 -25 25 -25 20 0 25
-5 25 -25 0 -20 5 -25 25 -25 l25 0 0 -50 0 -50 25 0 25 0 0 -1090 0 -1090
-25 0 -25 0 0 -50 0 -50 -25 0 c-20 0 -25 -5 -25 -25 0 -20 -5 -25 -25 -25
-20 0 -25 -5 -25 -25 l0 -25 -130 0 -130 0 0 -75 0 -75 610 0 610 0 0 75 0 75
-125 0 -125 0 0 25 c0 20 -5 25 -25 25 -20 0 -25 5 -25 25 0 20 -5 25 -25 25
l-25 0 0 100 0 100 -30 0 -30 0 0 990 0 990 30 0 30 0 0 100 0 100 25 0 c20 0
25 5 25 25 0 20 5 25 25 25 20 0 25 5 25 25 l0 25 125 0 125 0 0 75 0 75 -610
0 -610 0 0 -75z"/>
<path d="M5770 12125 l0 -75 130 0 130 0 0 -25 c0 -20 5 -25 25 -25 20 0 25
-5 25 -25 0 -20 5 -25 25 -25 l25 0 0 -125 0 -125 25 0 25 0 0 -940 0 -940
-25 0 -25 0 0 -125 0 -125 -25 0 c-20 0 -25 -5 -25 -25 0 -20 -5 -25 -25 -25
-20 0 -25 -5 -25 -25 l0 -25 -130 0 -130 0 0 -75 0 -75 760 0 760 0 0 25 0 25
150 0 150 0 0 25 0 25 80 0 80 0 0 25 0 25 50 0 50 0 0 25 0 25 50 0 50 0 0
25 0 25 50 0 50 0 0 25 c0 20 5 25 25 25 20 0 25 5 25 25 0 20 5 25 25 25 20
0 25 5 25 25 0 20 5 25 25 25 20 0 25 5 25 25 0 20 5 25 25 25 20 0 25 5 25
25 0 20 5 25 25 25 20 0 25 5 25 25 0 20 5 25 25 25 l25 0 0 50 0 50 30 0 30
0 0 30 0 30 25 0 25 0 0 75 0 75 25 0 25 0 0 50 0 50 25 0 25 0 0 150 0 150
25 0 25 0 0 205 0 205 -25 0 -25 0 0 125 0 125 -25 0 -25 0 0 75 0 75 -25 0
-25 0 0 50 0 50 -25 0 -25 0 0 50 0 50 -30 0 -30 0 0 55 0 55 -25 0 c-20 0
-25 5 -25 25 0 20 -5 25 -25 25 -20 0 -25 5 -25 25 0 20 -5 25 -25 25 -20 0
-25 5 -25 25 0 20 -5 25 -25 25 -20 0 -25 5 -25 25 0 20 -5 25 -25 25 -20 0
-25 5 -25 25 l0 25 -50 0 -50 0 0 25 c0 20 -5 25 -25 25 -20 0 -25 5 -25 25
l0 25 -75 0 -75 0 0 25 0 25 -75 0 -75 0 0 25 0 25 -155 0 -155 0 0 25 0 25
-785 0 -785 0 0 -75z m1370 -150 l0 -25 100 0 100 0 0 -25 0 -25 75 0 75 0 0
-25 c0 -20 5 -25 25 -25 20 0 25 -5 25 -25 l0 -25 55 0 55 0 0 -25 c0 -20 5
-25 25 -25 20 0 25 -5 25 -25 0 -20 5 -25 25 -25 20 0 25 -5 25 -25 0 -20 5
-25 25 -25 l25 0 0 -30 0 -30 25 0 25 0 0 -50 0 -50 25 0 c20 0 25 -5 25 -25
0 -20 5 -25 25 -25 l25 0 0 -75 0 -75 25 0 25 0 0 -75 0 -75 25 0 25 0 0 -380
0 -380 -25 0 -25 0 0 -100 0 -100 -25 0 -25 0 0 -50 0 -50 -25 0 c-20 0 -25
-5 -25 -25 0 -20 -5 -25 -25 -25 l-25 0 0 -55 0 -55 -25 0 c-20 0 -25 -5 -25
-25 0 -20 -5 -25 -25 -25 -20 0 -25 -5 -25 -25 0 -20 -5 -25 -25 -25 -20 0
-25 -5 -25 -25 0 -20 -5 -25 -25 -25 -20 0 -25 -5 -25 -25 l0 -25 -55 0 -55 0
0 -25 c0 -20 -5 -25 -25 -25 -20 0 -25 -5 -25 -25 l0 -25 -50 0 -50 0 0 -25 0
-25 -100 0 -100 0 0 -25 0 -25 -175 0 -175 0 0 25 0 25 -130 0 -130 0 0 1190
0 1190 130 0 130 0 0 25 0 25 150 0 150 0 0 -25z"/>
<path d="M8660 12125 l0 -75 125 0 125 0 0 -25 0 -25 50 0 50 0 0 -75 0 -75
25 0 25 0 0 -1090 0 -1090 -25 0 -25 0 0 -50 0 -50 -25 0 c-20 0 -25 -5 -25
-25 0 -20 -5 -25 -25 -25 -20 0 -25 -5 -25 -25 l0 -25 -125 0 -125 0 0 -75 0
-75 835 0 835 0 0 25 0 25 150 0 150 0 0 25 0 25 50 0 50 0 0 25 0 25 55 0 55
0 0 25 0 25 50 0 50 0 0 25 c0 20 5 25 25 25 20 0 25 5 25 25 0 20 5 25 25 25
l25 0 0 50 0 50 25 0 c20 0 25 5 25 25 0 20 5 25 25 25 l25 0 0 75 0 75 25 0
25 0 0 205 0 205 -25 0 -25 0 0 75 0 75 -25 0 c-20 0 -25 5 -25 25 0 20 -5 25
-25 25 -20 0 -25 5 -25 25 0 20 -5 25 -25 25 -20 0 -25 5 -25 25 0 20 -5 25
-25 25 -20 0 -25 5 -25 25 0 20 -5 25 -25 25 -20 0 -25 5 -25 25 l0 25 -55 0
-55 0 0 25 0 25 -50 0 -50 0 0 30 0 30 50 0 50 0 0 25 0 25 30 0 30 0 0 25 c0
20 5 25 25 25 20 0 25 5 25 25 0 20 5 25 25 25 20 0 25 5 25 25 0 20 5 25 25
25 l25 0 0 50 0 50 25 0 25 0 0 280 0 280 -25 0 -25 0 0 50 0 50 -25 0 c-20 0
-25 5 -25 25 0 20 -5 25 -25 25 -20 0 -25 5 -25 25 0 20 -5 25 -25 25 -20 0
-25 5 -25 25 l0 25 -30 0 -30 0 0 25 c0 20 -5 25 -25 25 -20 0 -25 5 -25 25
l0 25 -50 0 -50 0 0 25 0 25 -75 0 -75 0 0 25 0 25 -125 0 -125 0 0 25 0 25
-785 0 -785 0 0 -75z m1420 -150 l0 -25 75 0 75 0 0 -25 0 -25 50 0 50 0 0
-25 c0 -20 5 -25 25 -25 20 0 25 -5 25 -25 0 -20 5 -25 25 -25 20 0 25 -5 25
-25 0 -20 5 -25 25 -25 20 0 25 -5 25 -25 0 -20 5 -25 25 -25 l25 0 0 -55 0
-55 25 0 25 0 0 -150 0 -150 -25 0 -25 0 0 -50 0 -50 -25 0 -25 0 0 -50 0 -50
-25 0 c-20 0 -25 -5 -25 -25 0 -20 -5 -25 -25 -25 -20 0 -25 -5 -25 -25 l0
-25 -50 0 -50 0 0 -25 0 -25 -125 0 -125 0 0 -25 0 -25 -205 0 -205 0 0 25 0
25 -50 0 -50 0 0 505 0 505 25 0 c20 0 25 5 25 25 l0 25 255 0 255 0 0 -25z
m100 -1320 l0 -25 75 0 75 0 0 -25 0 -25 50 0 50 0 0 -25 c0 -20 5 -25 25 -25
20 0 25 -5 25 -25 0 -20 5 -25 25 -25 20 0 25 -5 25 -25 0 -20 5 -25 25 -25
l25 0 0 -50 0 -50 25 0 25 0 0 -75 0 -75 25 0 25 0 0 -75 0 -75 -25 0 -25 0 0
-80 0 -80 -25 0 -25 0 0 -50 0 -50 -25 0 c-20 0 -25 -5 -25 -25 0 -20 -5 -25
-25 -25 -20 0 -25 -5 -25 -25 l0 -25 -50 0 -50 0 0 -25 0 -25 -50 0 -50 0 0
-25 0 -25 -75 0 -75 0 0 -25 0 -25 -205 0 -205 0 0 25 0 25 -100 0 -100 0 0
555 0 555 330 0 330 0 0 -25z"/>
<path d="M11290 12125 l0 -75 150 0 150 0 0 -25 0 -25 30 0 30 0 0 -50 0 -50
25 0 25 0 0 -1140 0 -1140 -25 0 -25 0 0 -50 0 -50 -55 0 -55 0 0 -25 0 -25
-125 0 -125 0 0 -75 0 -75 635 0 635 0 0 75 0 75 -155 0 -155 0 0 25 c0 20 -5
25 -25 25 -20 0 -25 5 -25 25 0 20 -5 25 -25 25 l-25 0 0 530 0 530 130 0 130
0 0 -25 c0 -20 5 -25 25 -25 l25 0 0 -50 0 -50 25 0 c20 0 25 -5 25 -25 0 -20
5 -25 25 -25 20 0 25 -5 25 -25 0 -20 5 -25 25 -25 l25 0 0 -50 0 -50 25 0
c20 0 25 -5 25 -25 0 -20 5 -25 25 -25 l25 0 0 -50 0 -50 25 0 c20 0 25 -5 25
-25 0 -20 5 -25 25 -25 20 0 25 -5 25 -25 0 -20 5 -25 25 -25 l25 0 0 -55 0
-55 25 0 c20 0 25 -5 25 -25 0 -20 5 -25 25 -25 l25 0 0 -50 0 -50 25 0 c20 0
25 -5 25 -25 0 -20 5 -25 25 -25 20 0 25 -5 25 -25 0 -20 5 -25 25 -25 l25 0
0 -50 0 -50 25 0 c20 0 25 -5 25 -25 l0 -25 30 0 30 0 0 -50 0 -50 25 0 c20 0
25 -5 25 -25 0 -20 5 -25 25 -25 20 0 25 -5 25 -25 l0 -25 405 0 405 0 0 75 0
75 -105 0 -105 0 0 25 0 25 -75 0 -75 0 0 25 c0 20 -5 25 -25 25 -20 0 -25 5
-25 25 0 20 -5 25 -25 25 -20 0 -25 5 -25 25 0 20 -5 25 -25 25 -20 0 -25 5
-25 25 0 20 -5 25 -25 25 -20 0 -25 5 -25 25 0 20 -5 25 -25 25 -20 0 -25 5
-25 25 0 20 -5 25 -25 25 -20 0 -25 5 -25 25 0 20 -5 25 -25 25 l-25 0 0 50 0
50 -25 0 -25 0 0 30 0 30 -25 0 c-20 0 -25 5 -25 25 0 20 -5 25 -25 25 l-25 0
0 50 0 50 -25 0 c-20 0 -25 5 -25 25 l0 25 -30 0 -30 0 0 50 0 50 -25 0 c-20
0 -25 5 -25 25 0 20 -5 25 -25 25 -20 0 -25 5 -25 25 0 20 -5 25 -25 25 l-25
0 0 50 0 50 -25 0 c-20 0 -25 5 -25 25 0 20 -5 25 -25 25 l-25 0 0 50 0 50
-25 0 c-20 0 -25 5 -25 25 l0 25 75 0 75 0 0 25 0 25 50 0 50 0 0 30 0 30 55
0 55 0 0 25 c0 20 5 25 25 25 20 0 25 5 25 25 0 20 5 25 25 25 20 0 25 5 25
25 0 20 5 25 25 25 20 0 25 5 25 25 0 20 5 25 25 25 l25 0 0 50 0 50 25 0 25
0 0 75 0 75 25 0 25 0 0 150 0 150 -25 0 -25 0 0 80 0 80 -25 0 -25 0 0 50 0
50 -25 0 c-20 0 -25 5 -25 25 0 20 -5 25 -25 25 -20 0 -25 5 -25 25 0 20 -5
25 -25 25 -20 0 -25 5 -25 25 0 20 -5 25 -25 25 -20 0 -25 5 -25 25 l0 25 -55
0 -55 0 0 25 0 25 -50 0 -50 0 0 25 0 25 -125 0 -125 0 0 25 0 25 -735 0 -735
0 0 -75z m1270 -150 l0 -25 75 0 75 0 0 -25 c0 -20 5 -25 25 -25 20 0 25 -5
25 -25 l0 -25 50 0 50 0 0 -50 0 -50 25 0 c20 0 25 -5 25 -25 0 -20 5 -25 25
-25 l25 0 0 -80 0 -80 25 0 25 0 0 -100 0 -100 -25 0 -25 0 0 -75 0 -75 -25 0
-25 0 0 -50 0 -50 -25 0 c-20 0 -25 -5 -25 -25 0 -20 -5 -25 -25 -25 -20 0
-25 -5 -25 -25 0 -20 -5 -25 -25 -25 -20 0 -25 -5 -25 -25 l0 -25 -50 0 -50 0
0 -25 0 -25 -75 0 -75 0 0 -25 0 -25 -180 0 -180 0 0 555 0 555 75 0 75 0 0
25 0 25 130 0 130 0 0 -25z"/>
<path d="M19750 12125 l0 -75 150 0 150 0 0 -25 c0 -20 5 -25 25 -25 20 0 25
-5 25 -25 0 -20 5 -25 25 -25 l25 0 0 -1190 0 -1190 -25 0 c-20 0 -25 -5 -25
-25 0 -20 -5 -25 -25 -25 -20 0 -25 -5 -25 -25 l0 -25 -150 0 -150 0 0 -75 0
-75 630 0 630 0 0 75 0 75 -125 0 -125 0 0 25 c0 20 -5 25 -25 25 -20 0 -25 5
-25 25 0 20 -5 25 -25 25 -20 0 -25 5 -25 25 0 20 -5 25 -25 25 l-25 0 0 530
0 530 25 0 c20 0 25 -5 25 -25 0 -20 5 -25 25 -25 20 0 25 -5 25 -25 0 -20 5
-25 25 -25 20 0 25 -5 25 -25 0 -20 5 -25 25 -25 20 0 25 -5 25 -25 0 -20 5
-25 25 -25 20 0 25 -5 25 -25 0 -20 5 -25 25 -25 20 0 25 -5 25 -25 0 -20 5
-25 25 -25 20 0 25 -5 25 -25 0 -20 5 -25 25 -25 l25 0 0 -50 0 -50 25 0 c20
0 25 -5 25 -25 0 -20 5 -25 25 -25 20 0 25 -5 25 -25 0 -20 5 -25 25 -25 20 0
25 -5 25 -25 l0 -25 30 0 30 0 0 -25 c0 -20 5 -25 25 -25 l25 0 0 -30 0 -30
25 0 c20 0 25 -5 25 -25 0 -20 5 -25 25 -25 20 0 25 -5 25 -25 0 -20 5 -25 25
-25 20 0 25 -5 25 -25 0 -20 5 -25 25 -25 20 0 25 -5 25 -25 0 -20 5 -25 25
-25 20 0 25 -5 25 -25 0 -20 5 -25 25 -25 20 0 25 -5 25 -25 0 -20 5 -25 25
-25 20 0 25 -5 25 -25 0 -20 5 -25 25 -25 20 0 25 -5 25 -25 0 -20 -5 -25 -25
-25 l-25 0 0 -50 0 -50 -100 0 -100 0 0 -75 0 -75 680 0 680 0 0 75 0 75 -75
0 -75 0 0 25 0 25 -75 0 -75 0 0 25 0 25 -50 0 -50 0 0 25 c0 20 -5 25 -25 25
-20 0 -25 5 -25 25 l0 25 -50 0 -50 0 0 25 c0 20 -5 25 -25 25 -20 0 -25 5
-25 25 0 20 -5 25 -25 25 -20 0 -25 5 -25 25 0 20 -5 25 -25 25 -20 0 -25 5
-25 25 0 20 -5 25 -25 25 -20 0 -25 5 -25 25 l0 25 -30 0 -30 0 0 25 c0 20 -5
25 -25 25 l-25 0 0 30 0 30 -25 0 c-20 0 -25 5 -25 25 0 20 -5 25 -25 25 -20
0 -25 5 -25 25 0 20 -5 25 -25 25 -20 0 -25 5 -25 25 0 20 -5 25 -25 25 -20 0
-25 5 -25 25 0 20 -5 25 -25 25 -20 0 -25 5 -25 25 0 20 -5 25 -25 25 -20 0
-25 5 -25 25 0 20 -5 25 -25 25 -20 0 -25 5 -25 25 0 20 -5 25 -25 25 -20 0
-25 5 -25 25 0 20 -5 25 -25 25 -20 0 -25 5 -25 25 0 20 -5 25 -25 25 -20 0
-25 5 -25 25 0 20 -5 25 -25 25 -20 0 -25 5 -25 25 0 20 -5 25 -25 25 -20 0
-25 5 -25 25 0 20 -5 25 -25 25 -20 0 -25 5 -25 25 0 20 -5 25 -25 25 -20 0
-25 5 -25 25 l0 25 -30 0 -30 0 0 25 c0 20 -5 25 -25 25 l-25 0 0 30 0 30 -25
0 c-20 0 -25 5 -25 25 0 20 -5 25 -25 25 -20 0 -25 5 -25 25 0 20 5 25 25 25
20 0 25 5 25 25 0 20 5 25 25 25 20 0 25 5 25 25 0 20 5 25 25 25 20 0 25 5
25 25 l0 25 30 0 30 0 0 25 c0 20 5 25 25 25 20 0 25 5 25 25 0 20 5 25 25 25
20 0 25 5 25 25 0 20 5 25 25 25 20 0 25 5 25 25 0 20 5 25 25 25 20 0 25 5
25 25 0 20 5 25 25 25 20 0 25 5 25 25 0 20 5 25 25 25 20 0 25 5 25 25 0 20
5 25 25 25 20 0 25 5 25 25 0 20 5 25 25 25 20 0 25 5 25 25 0 20 5 25 25 25
20 0 25 5 25 25 0 20 5 25 25 25 l25 0 0 30 0 30 25 0 c20 0 25 5 25 25 0 20
5 25 25 25 20 0 25 5 25 25 0 20 5 25 25 25 20 0 25 5 25 25 0 20 5 25 25 25
20 0 25 5 25 25 0 20 5 25 25 25 20 0 25 5 25 25 l0 25 55 0 55 0 0 25 c0 20
5 25 25 25 20 0 25 5 25 25 l0 25 50 0 50 0 0 25 0 25 100 0 100 0 0 75 0 75
-530 0 -530 0 0 -75 0 -75 100 0 100 0 0 -25 c0 -20 5 -25 25 -25 l25 0 0 -50
0 -50 -25 0 -25 0 0 -50 0 -50 -25 0 c-20 0 -25 -5 -25 -25 0 -20 -5 -25 -25
-25 -20 0 -25 -5 -25 -25 0 -20 -5 -25 -25 -25 -20 0 -25 -5 -25 -25 0 -20 -5
-25 -25 -25 l-25 0 0 -30 0 -30 -25 0 c-20 0 -25 -5 -25 -25 0 -20 -5 -25 -25
-25 -20 0 -25 -5 -25 -25 0 -20 -5 -25 -25 -25 -20 0 -25 -5 -25 -25 l0 -25
-30 0 -30 0 0 -25 c0 -20 -5 -25 -25 -25 -20 0 -25 -5 -25 -25 0 -20 -5 -25
-25 -25 -20 0 -25 -5 -25 -25 0 -20 -5 -25 -25 -25 -20 0 -25 -5 -25 -25 0
-20 -5 -25 -25 -25 -20 0 -25 -5 -25 -25 0 -20 -5 -25 -25 -25 -20 0 -25 -5
-25 -25 0 -20 -5 -25 -25 -25 -20 0 -25 -5 -25 -25 0 -20 -5 -25 -25 -25 -20
0 -25 -5 -25 -25 0 -20 -5 -25 -25 -25 -20 0 -25 -5 -25 -25 0 -20 -5 -25 -25
-25 -20 0 -25 -5 -25 -25 0 -20 -5 -25 -25 -25 -20 0 -25 -5 -25 -25 0 -20 -5
-25 -25 -25 l-25 0 0 505 0 505 25 0 25 0 0 50 0 50 25 0 c20 0 25 5 25 25 l0
25 150 0 150 0 0 75 0 75 -630 0 -630 0 0 -75z"/>
</g>
</svg>
