<?xml version="1.0" standalone="no"?>
<!DOCTYPE svg PUBLIC "-//W3C//DTD SVG 20010904//EN"
 "http://www.w3.org/TR/2001/REC-SVG-20010904/DTD/svg10.dtd">
<svg version="1.0" xmlns="http://www.w3.org/2000/svg"
 width="3000.000000pt" height="1050.000000pt" viewBox="0 0 3000.000000 1050.000000"
 preserveAspectRatio="xMidYMid meet">
<metadata>
Created by potrace 1.16, written by Peter Selinger 2001-2019
</metadata>
<g transform="translate(0.000000,1050.000000) scale(0.100000,-0.100000)"
fill="#C6BE7E" stroke="none">
<path d="M5910 10432 c0 -63 2 -70 29 -89 23 -18 29 -31 34 -78 5 -49 11 -62
41 -90 29 -26 36 -40 36 -69 0 -27 8 -43 34 -69 19 -19 36 -48 40 -69 3 -19
18 -46 32 -59 14 -13 32 -40 40 -59 8 -19 28 -47 45 -62 16 -15 29 -34 29 -42
0 -8 19 -38 43 -65 23 -28 62 -76 87 -108 25 -32 53 -64 63 -71 9 -7 24 -28
33 -45 9 -18 47 -64 85 -103 38 -40 69 -76 69 -81 0 -10 177 -186 255 -254 28
-24 84 -76 126 -116 42 -40 82 -73 88 -73 7 0 29 -17 50 -37 22 -21 60 -56 86
-78 26 -22 62 -53 80 -70 31 -28 75 -64 183 -150 24 -19 48 -35 53 -35 5 0 26
-15 46 -33 21 -18 52 -41 68 -52 17 -10 38 -29 48 -41 9 -12 32 -27 51 -34 18
-6 46 -24 61 -40 16 -17 35 -30 42 -30 8 0 33 -18 55 -40 23 -22 46 -40 50
-40 5 0 24 -16 44 -35 19 -19 43 -35 54 -35 10 0 40 -18 65 -40 25 -22 52 -40
59 -40 7 0 23 -12 37 -26 13 -15 44 -35 68 -45 24 -11 59 -33 78 -49 18 -17
40 -30 48 -30 8 0 29 -13 47 -29 18 -16 50 -36 72 -45 21 -9 54 -29 72 -46 19
-16 44 -30 54 -30 11 0 37 -15 57 -34 21 -18 55 -39 76 -45 20 -7 42 -21 47
-31 5 -10 31 -26 57 -36 27 -9 61 -30 76 -46 15 -15 37 -28 48 -28 28 0 59
-18 91 -51 16 -17 37 -29 52 -29 14 0 41 -14 60 -30 19 -17 49 -35 68 -42 18
-6 47 -23 63 -38 17 -16 49 -33 73 -40 23 -6 57 -23 75 -39 17 -15 46 -31 62
-35 17 -4 47 -21 69 -38 21 -17 57 -35 80 -40 22 -5 52 -20 66 -33 14 -13 45
-31 69 -39 23 -9 56 -27 72 -41 17 -13 48 -29 69 -35 21 -6 53 -22 69 -36 16
-13 52 -31 79 -39 27 -8 57 -24 67 -35 10 -11 43 -27 72 -36 29 -9 66 -27 82
-40 16 -13 50 -31 74 -38 25 -7 60 -25 78 -39 19 -14 51 -30 71 -35 20 -6 56
-24 80 -40 24 -17 63 -33 88 -36 28 -4 59 -18 84 -38 21 -17 56 -35 79 -40 22
-5 55 -22 73 -37 20 -18 49 -31 78 -35 30 -5 59 -18 80 -36 20 -18 54 -34 83
-40 30 -7 60 -21 73 -35 14 -15 43 -28 77 -35 34 -7 67 -23 87 -41 22 -19 53
-33 86 -39 33 -6 64 -20 85 -39 23 -20 49 -31 85 -36 35 -5 62 -16 83 -35 18
-15 57 -35 88 -43 31 -9 68 -26 83 -38 15 -12 52 -28 83 -36 32 -8 69 -25 84
-38 15 -12 45 -26 66 -29 21 -4 54 -20 75 -36 20 -16 58 -34 85 -40 26 -6 66
-24 88 -39 22 -16 59 -34 81 -40 23 -6 58 -24 78 -40 20 -16 50 -32 65 -36 16
-3 39 -17 51 -30 13 -14 39 -30 59 -36 20 -7 54 -27 76 -46 49 -41 129 -106
190 -153 64 -50 302 -288 350 -350 36 -48 57 -74 153 -190 16 -19 35 -46 42
-60 7 -14 26 -40 41 -58 16 -18 29 -39 29 -47 0 -8 15 -32 34 -52 18 -21 36
-48 40 -60 4 -12 20 -38 36 -58 16 -20 34 -53 41 -73 6 -20 23 -52 37 -71 13
-18 31 -53 38 -78 7 -24 24 -58 38 -74 13 -15 30 -45 36 -66 7 -21 25 -51 40
-68 16 -16 32 -47 36 -69 3 -21 19 -53 35 -71 15 -17 32 -50 37 -72 5 -23 23
-58 40 -79 17 -22 34 -52 38 -69 4 -16 20 -45 35 -62 25 -29 49 -87 49 -119 0
-6 11 -21 25 -34 13 -12 32 -45 40 -71 9 -27 26 -55 37 -63 19 -14 47 -75 48
-107 0 -8 11 -26 24 -39 14 -12 32 -43 40 -67 9 -25 29 -60 46 -79 16 -19 30
-45 30 -58 0 -13 15 -46 33 -72 19 -27 37 -62 41 -79 4 -16 21 -44 37 -61 18
-18 35 -50 40 -75 6 -24 21 -55 34 -69 13 -14 31 -45 40 -70 9 -25 27 -57 41
-71 18 -19 28 -43 33 -84 7 -51 13 -61 55 -101 53 -49 84 -61 115 -45 21 11
24 21 36 93 3 21 17 51 31 67 13 16 31 52 39 78 8 27 26 60 40 73 14 13 31 43
36 66 6 23 22 53 35 65 13 12 29 39 34 60 6 20 24 53 40 74 16 21 34 54 40 75
6 21 23 54 39 74 16 20 32 51 35 69 3 19 18 44 31 57 14 13 32 46 40 74 8 27
26 61 39 76 13 14 29 45 36 69 6 24 23 55 37 69 14 14 32 46 40 71 9 25 27 58
40 72 13 14 30 50 38 79 8 29 25 65 38 79 14 14 30 43 37 64 7 21 25 53 40 71
16 17 32 49 35 70 4 21 20 53 36 71 15 17 32 51 38 74 5 24 21 55 35 70 14 15
31 42 37 61 7 19 27 57 46 84 18 26 33 59 33 71 0 13 11 37 25 53 14 17 32 47
41 69 9 21 28 52 43 68 15 17 33 49 40 73 7 24 22 49 35 58 13 8 30 28 36 45
7 16 23 38 36 48 14 11 31 34 39 53 7 19 21 41 31 49 9 7 27 31 41 52 55 88
482 504 577 562 18 11 47 32 65 48 18 15 39 27 46 27 7 0 32 16 55 35 23 19
58 39 79 45 20 5 48 21 60 34 13 14 45 30 71 36 28 7 62 24 79 40 19 19 45 31
76 35 27 5 59 18 76 32 16 14 55 33 87 42 31 10 74 30 96 44 21 15 54 29 75
33 20 3 53 19 73 35 22 17 59 33 89 39 32 6 63 21 84 39 19 16 47 32 64 35 17
3 45 9 62 12 17 3 33 12 36 20 7 20 56 44 88 44 31 0 55 12 91 45 15 14 44 27
70 31 24 3 63 18 86 33 24 15 65 35 91 44 27 9 61 27 78 41 16 14 49 28 75 32
29 4 59 18 84 39 24 20 57 36 81 40 23 4 55 20 74 37 23 19 50 32 85 37 33 5
60 17 78 34 15 14 49 31 75 38 27 6 59 23 71 36 12 13 46 30 76 38 29 8 65 25
79 39 14 13 48 30 74 37 27 6 59 23 71 36 12 13 46 30 76 38 29 8 65 25 79 38
14 13 47 31 72 40 25 8 57 26 71 40 14 14 45 31 69 37 24 7 55 23 69 36 14 13
48 30 74 38 27 8 60 26 75 40 14 13 45 29 67 35 23 6 48 19 55 28 8 9 39 27
69 40 30 14 66 35 80 48 14 13 43 28 66 34 22 6 51 22 64 36 13 14 42 30 64
36 23 6 55 23 71 39 17 15 45 32 63 38 19 7 49 25 68 42 19 16 43 30 53 30 11
0 38 16 61 35 23 19 59 39 81 45 21 6 44 20 50 31 6 12 34 31 62 44 29 12 60
32 71 43 10 12 30 24 46 27 15 3 40 19 55 35 16 16 44 35 64 41 20 6 50 24 66
39 17 15 40 31 53 35 13 4 38 20 57 36 18 16 50 36 71 45 21 9 45 25 53 36 7
11 29 26 47 34 19 8 41 25 49 38 9 13 33 31 54 39 20 9 43 23 51 32 7 9 32 26
54 37 23 11 57 34 76 50 106 88 132 108 144 108 7 0 21 10 32 21 10 12 37 33
59 47 22 14 52 37 66 51 15 14 48 42 74 61 113 83 351 289 490 422 181 174
431 433 486 503 17 22 37 44 45 48 8 4 21 22 30 40 9 18 31 48 48 69 31 36 61
78 93 132 10 16 32 45 49 65 17 20 35 51 39 69 4 18 22 47 40 63 23 22 34 41
38 72 4 30 14 48 36 67 23 18 32 37 37 70 5 33 15 53 40 77 31 29 34 37 34 92
0 50 4 64 24 83 13 13 27 33 31 46 6 21 4 22 -44 22 -45 0 -54 -4 -89 -38 -31
-30 -40 -48 -45 -87 -6 -38 -15 -56 -42 -81 -28 -25 -35 -39 -35 -68 0 -29 -7
-44 -34 -69 -19 -18 -39 -48 -45 -68 -6 -19 -24 -45 -40 -57 -16 -11 -31 -34
-34 -51 -4 -17 -16 -39 -28 -48 -12 -10 -29 -30 -38 -44 -30 -49 -288 -333
-378 -416 -172 -161 -325 -296 -388 -343 -26 -19 -68 -52 -94 -72 -25 -21 -68
-54 -94 -75 -27 -21 -66 -55 -88 -75 -22 -21 -44 -38 -48 -38 -5 0 -28 -16
-51 -35 -23 -19 -48 -35 -55 -35 -7 0 -32 -16 -55 -35 -23 -19 -46 -35 -50
-35 -5 0 -30 -18 -55 -40 -25 -22 -52 -40 -60 -40 -8 0 -35 -18 -60 -40 -25
-22 -50 -40 -55 -40 -4 0 -27 -15 -49 -34 -23 -19 -54 -37 -70 -41 -16 -3 -37
-15 -47 -27 -11 -11 -37 -29 -59 -40 -22 -12 -55 -34 -73 -49 -18 -16 -42 -29
-53 -29 -12 0 -35 -15 -53 -34 -18 -20 -48 -39 -71 -45 -23 -6 -54 -24 -69
-40 -16 -17 -41 -33 -57 -36 -15 -4 -44 -19 -64 -35 -20 -16 -49 -31 -64 -35
-16 -3 -41 -19 -57 -36 -15 -16 -46 -34 -68 -40 -23 -6 -55 -24 -72 -39 -18
-15 -50 -34 -71 -40 -21 -7 -52 -25 -70 -40 -17 -16 -45 -31 -61 -35 -16 -3
-40 -17 -53 -31 -13 -13 -46 -31 -75 -40 -28 -8 -62 -26 -74 -39 -13 -14 -42
-30 -64 -36 -22 -6 -55 -23 -72 -39 -17 -15 -49 -31 -70 -35 -21 -3 -53 -20
-71 -35 -18 -16 -49 -33 -69 -39 -21 -6 -49 -22 -64 -36 -15 -14 -51 -32 -80
-40 -29 -8 -65 -25 -79 -39 -14 -13 -48 -30 -74 -37 -27 -6 -59 -23 -71 -36
-12 -13 -46 -30 -76 -38 -29 -8 -65 -25 -79 -39 -14 -13 -48 -30 -74 -37 -27
-6 -59 -23 -71 -36 -12 -13 -46 -30 -76 -38 -29 -8 -65 -25 -79 -39 -15 -15
-48 -30 -78 -36 -29 -6 -68 -24 -88 -40 -20 -16 -53 -31 -74 -35 -22 -4 -47
-16 -58 -27 -23 -25 -58 -43 -102 -52 -18 -3 -48 -19 -66 -35 -22 -19 -49 -31
-81 -35 -31 -5 -62 -18 -85 -36 -20 -16 -56 -34 -80 -40 -24 -6 -62 -24 -84
-39 -22 -15 -62 -33 -89 -40 -28 -7 -64 -25 -82 -40 -20 -19 -49 -31 -80 -36
-32 -4 -60 -17 -82 -36 -19 -17 -50 -32 -73 -35 -23 -4 -54 -18 -70 -31 -16
-14 -51 -31 -78 -38 -27 -7 -67 -26 -88 -43 -24 -20 -55 -33 -86 -38 -27 -3
-60 -17 -75 -29 -38 -31 -61 -42 -110 -50 -26 -4 -57 -19 -75 -35 -18 -15 -52
-33 -76 -40 -25 -6 -58 -22 -75 -34 -17 -13 -53 -29 -80 -35 -28 -7 -64 -25
-82 -40 -17 -16 -49 -31 -70 -35 -22 -4 -55 -18 -74 -31 -19 -13 -55 -31 -80
-40 -25 -9 -56 -27 -70 -40 -14 -13 -45 -31 -69 -40 -24 -8 -59 -28 -77 -45
-19 -16 -41 -30 -49 -30 -7 0 -34 -17 -58 -37 -24 -21 -57 -46 -73 -56 -85
-51 -148 -106 -349 -305 -110 -108 -245 -254 -259 -280 -5 -10 -24 -35 -43
-56 -18 -22 -33 -45 -33 -51 0 -6 -12 -22 -26 -36 -14 -13 -33 -37 -41 -54 -8
-16 -28 -43 -43 -60 -15 -16 -33 -47 -40 -68 -6 -21 -22 -45 -35 -53 -13 -9
-29 -32 -36 -52 -6 -20 -22 -49 -36 -63 -13 -15 -31 -48 -39 -75 -8 -26 -25
-60 -38 -74 -13 -14 -30 -45 -36 -70 -7 -24 -25 -59 -40 -77 -16 -18 -31 -49
-35 -75 -8 -49 -26 -88 -49 -107 -9 -8 -21 -31 -26 -53 -6 -21 -24 -60 -40
-85 -16 -25 -34 -69 -40 -98 -7 -33 -20 -61 -36 -76 -13 -13 -32 -48 -40 -79
-9 -30 -26 -69 -39 -85 -12 -17 -26 -46 -30 -65 -10 -47 -31 -86 -49 -93 -8
-3 -18 -23 -21 -44 -11 -66 -25 -99 -50 -123 -13 -12 -27 -40 -30 -62 -4 -22
-20 -54 -35 -72 -16 -17 -32 -50 -35 -71 -4 -22 -17 -57 -29 -78 -11 -21 -29
-53 -38 -70 -10 -18 -18 -42 -18 -55 0 -28 -15 -59 -45 -92 -13 -15 -26 -45
-30 -74 -5 -35 -15 -56 -35 -75 -18 -17 -33 -45 -42 -80 -7 -30 -17 -56 -23
-58 -17 -5 -62 78 -74 137 -7 32 -22 65 -36 80 -13 14 -31 50 -39 81 -9 31
-28 66 -41 79 -14 13 -27 39 -30 59 -11 69 -15 78 -44 115 -18 23 -33 55 -37
82 -4 29 -18 59 -39 84 -19 23 -36 57 -40 80 -4 22 -17 53 -30 68 -13 15 -30
54 -39 86 -8 33 -26 70 -40 85 -15 15 -30 48 -36 78 -6 29 -24 68 -40 88 -16
20 -31 53 -35 74 -4 22 -16 47 -27 58 -27 24 -44 60 -51 107 -3 21 -17 55 -31
75 -14 20 -34 61 -46 92 -11 31 -29 64 -40 74 -11 10 -24 43 -31 76 -7 38 -20
66 -35 80 -14 13 -32 48 -40 79 -9 30 -27 66 -40 80 -12 14 -30 42 -39 63 -9
21 -29 57 -45 79 -17 23 -30 45 -30 51 0 5 -16 27 -35 48 -19 22 -35 46 -35
53 0 8 -18 36 -40 61 -22 25 -40 51 -40 57 0 10 -20 34 -110 138 -17 19 -55
65 -86 102 -30 36 -61 69 -69 72 -8 3 -23 22 -34 43 -23 46 -133 154 -178 177
-18 9 -33 21 -33 26 0 5 -30 34 -67 64 -38 31 -81 69 -98 85 -16 15 -44 36
-62 45 -17 9 -38 25 -46 35 -7 11 -33 29 -58 39 -24 11 -52 29 -63 40 -10 12
-35 27 -55 33 -20 6 -54 25 -76 41 -22 15 -58 33 -80 39 -21 6 -52 22 -68 35
-15 13 -47 29 -70 35 -23 7 -58 25 -79 40 -20 16 -58 33 -84 39 -27 6 -64 23
-82 37 -19 14 -56 31 -83 38 -27 7 -62 24 -79 38 -16 14 -53 30 -81 36 -31 7
-65 23 -84 40 -21 18 -48 30 -80 34 -32 5 -58 17 -81 37 -20 17 -51 33 -75 36
-22 4 -57 19 -78 35 -22 15 -58 33 -80 39 -23 6 -63 24 -88 40 -25 16 -69 34
-98 40 -33 7 -61 20 -76 36 -13 13 -48 32 -79 40 -30 9 -69 26 -85 39 -17 12
-46 26 -65 30 -47 10 -86 31 -93 49 -3 8 -23 18 -44 21 -66 11 -99 25 -123 50
-12 13 -40 27 -62 30 -22 4 -54 20 -72 35 -18 16 -54 34 -82 41 -27 7 -67 25
-89 40 -22 15 -60 33 -85 39 -24 7 -57 23 -73 36 -15 13 -47 29 -70 36 -23 6
-60 24 -82 40 -22 16 -58 33 -80 39 -21 6 -52 22 -68 35 -15 13 -47 29 -70 36
-23 6 -60 24 -82 40 -22 16 -58 33 -80 39 -21 6 -52 22 -68 35 -15 13 -47 29
-70 35 -23 7 -56 22 -73 35 -16 12 -48 30 -70 39 -21 9 -50 27 -64 39 -14 13
-50 31 -81 40 -30 8 -64 25 -74 36 -10 11 -37 25 -59 31 -23 6 -57 26 -76 44
-21 19 -50 35 -73 39 -20 4 -52 20 -70 35 -17 16 -50 34 -72 41 -22 7 -55 26
-73 41 -18 16 -39 29 -46 29 -8 0 -36 15 -62 33 -27 19 -65 39 -85 46 -20 6
-46 23 -59 36 -13 13 -44 31 -70 40 -26 9 -57 27 -70 40 -12 13 -36 27 -52 31
-17 3 -47 21 -67 39 -20 18 -52 37 -72 44 -20 6 -45 21 -55 32 -10 11 -34 27
-52 35 -19 8 -49 27 -67 43 -19 16 -47 32 -63 36 -17 3 -38 15 -48 27 -11 11
-41 31 -67 44 -26 14 -51 32 -54 40 -3 9 -29 26 -57 38 -28 13 -60 33 -70 45
-11 11 -25 21 -33 21 -7 0 -32 17 -56 39 -23 21 -53 42 -67 46 -14 4 -41 21
-60 37 -102 85 -132 108 -140 108 -5 0 -30 18 -55 40 -25 22 -49 40 -53 40 -8
0 -81 56 -142 109 -164 141 -212 181 -221 181 -6 0 -36 25 -67 56 -31 31 -79
73 -107 94 -56 42 -275 262 -275 276 0 5 -27 37 -60 71 -33 35 -66 75 -74 90
-8 16 -28 41 -45 57 -17 17 -31 35 -31 42 0 6 -18 30 -40 53 -22 22 -40 48
-40 57 0 9 -14 29 -31 45 -19 18 -35 45 -41 71 -6 28 -21 54 -44 74 -28 26
-34 39 -34 73 0 41 -8 54 -64 99 -9 7 -16 26 -16 42 0 52 -8 60 -61 60 -49 0
-49 0 -49 -68z"/>
<path d="M23835 9500 c-14 -22 -30 -40 -35 -40 -22 0 -50 -41 -50 -74 0 -27
-7 -39 -30 -56 -17 -12 -38 -40 -47 -61 -8 -21 -19 -39 -24 -39 -18 0 -49 -41
-49 -66 0 -16 -13 -37 -34 -57 -19 -18 -41 -46 -50 -63 -8 -17 -22 -34 -30
-37 -8 -3 -23 -21 -32 -39 -9 -18 -33 -49 -53 -70 -45 -45 -101 -113 -101
-122 0 -4 -47 -59 -104 -124 -179 -201 -606 -612 -636 -612 -5 0 -49 -34 -97
-76 -221 -190 -248 -211 -282 -219 -16 -3 -37 -17 -45 -30 -9 -14 -31 -32 -49
-41 -17 -9 -43 -27 -57 -40 -14 -12 -41 -30 -61 -38 -20 -9 -50 -29 -67 -46
-17 -16 -37 -30 -44 -30 -8 0 -27 -13 -43 -30 -15 -16 -44 -35 -64 -41 -20 -6
-49 -24 -66 -39 -16 -16 -47 -35 -68 -44 -22 -9 -52 -27 -69 -41 -16 -14 -36
-25 -44 -25 -8 0 -31 -16 -52 -35 -23 -20 -56 -38 -82 -44 -28 -6 -51 -19 -63
-35 -12 -16 -38 -32 -71 -41 -29 -9 -63 -27 -76 -40 -13 -13 -39 -30 -59 -36
-20 -7 -49 -22 -64 -35 -15 -13 -47 -29 -70 -35 -23 -6 -57 -22 -75 -35 -17
-14 -47 -30 -65 -36 -17 -6 -45 -23 -62 -39 -16 -15 -49 -32 -71 -37 -23 -5
-59 -23 -80 -40 -22 -17 -57 -34 -79 -38 -22 -4 -58 -19 -80 -35 -22 -15 -65
-34 -96 -43 -30 -8 -64 -25 -74 -36 -10 -11 -40 -27 -67 -35 -27 -8 -62 -25
-79 -39 -16 -13 -53 -31 -82 -40 -29 -9 -62 -25 -72 -36 -10 -11 -42 -27 -71
-36 -29 -8 -58 -22 -65 -30 -19 -23 -58 -41 -107 -49 -26 -4 -57 -19 -76 -36
-18 -15 -52 -32 -75 -38 -24 -5 -56 -21 -71 -36 -15 -14 -51 -32 -80 -40 -29
-8 -65 -25 -79 -39 -14 -14 -45 -29 -68 -34 -24 -6 -58 -23 -77 -40 -24 -21
-49 -32 -86 -37 -35 -5 -60 -16 -82 -35 -17 -16 -48 -32 -70 -35 -22 -4 -54
-20 -71 -35 -18 -15 -52 -33 -77 -40 -25 -7 -59 -25 -76 -40 -22 -19 -49 -30
-82 -35 -31 -4 -57 -14 -69 -27 -23 -25 -58 -43 -102 -52 -18 -3 -48 -19 -66
-35 -19 -16 -51 -32 -73 -36 -22 -3 -48 -16 -59 -27 -24 -26 -66 -48 -95 -48
-13 0 -37 -8 -55 -18 -123 -68 -151 -84 -174 -103 -14 -11 -45 -25 -69 -30
-24 -5 -58 -23 -76 -38 -18 -16 -47 -32 -66 -36 -18 -4 -46 -20 -63 -35 -16
-15 -52 -35 -78 -43 -27 -9 -57 -27 -68 -41 -11 -13 -35 -30 -53 -36 -19 -6
-40 -18 -47 -26 -7 -9 -34 -26 -60 -39 -25 -13 -60 -37 -77 -52 -17 -15 -54
-46 -81 -68 -156 -123 -391 -363 -391 -399 0 -7 -12 -23 -26 -37 -14 -13 -36
-46 -48 -74 -13 -27 -31 -56 -40 -64 -10 -8 -26 -32 -37 -52 -10 -21 -28 -43
-39 -49 -11 -6 -22 -26 -26 -46 -4 -20 -24 -55 -45 -80 -22 -25 -39 -51 -39
-59 0 -7 -15 -32 -34 -54 -19 -23 -38 -51 -42 -64 -4 -12 -22 -39 -40 -60 -19
-20 -34 -44 -34 -52 0 -8 -13 -29 -29 -47 -15 -18 -36 -49 -46 -68 -9 -19 -28
-46 -40 -60 -13 -14 -26 -36 -30 -50 -4 -14 -20 -42 -37 -63 -16 -20 -36 -53
-43 -71 -8 -19 -23 -41 -34 -48 -10 -7 -26 -31 -35 -53 -10 -22 -28 -51 -41
-65 -13 -14 -32 -45 -43 -70 -11 -25 -27 -52 -36 -59 -10 -8 -24 -31 -32 -50
-8 -20 -28 -49 -43 -66 -16 -16 -32 -41 -36 -55 -4 -14 -23 -42 -41 -63 -19
-20 -34 -43 -34 -51 0 -8 -16 -33 -35 -56 -19 -23 -35 -47 -35 -54 0 -14 -76
-134 -119 -190 -17 -21 -31 -46 -31 -56 0 -11 -18 -39 -39 -64 -22 -25 -42
-59 -46 -75 -4 -17 -17 -39 -31 -50 -13 -10 -32 -39 -43 -64 -11 -25 -29 -50
-40 -56 -11 -6 -25 -29 -31 -50 -5 -21 -17 -45 -26 -52 -8 -7 -26 -33 -39 -58
-13 -25 -34 -57 -48 -69 -14 -13 -28 -39 -31 -58 -4 -18 -25 -54 -46 -80 -22
-25 -40 -54 -40 -64 0 -11 -12 -31 -27 -45 -16 -14 -33 -40 -39 -58 -21 -63
-71 -41 -100 45 -9 27 -26 55 -39 64 -13 9 -29 32 -36 52 -6 20 -24 51 -40 67
-15 17 -35 48 -44 70 -9 22 -27 51 -40 65 -13 14 -26 40 -30 58 -4 19 -19 42
-36 55 -20 14 -34 36 -41 65 -6 24 -19 47 -30 53 -11 6 -28 30 -39 54 -10 23
-26 49 -36 56 -9 8 -25 34 -36 59 -11 25 -33 60 -48 78 -16 18 -29 39 -29 47
0 8 -15 32 -34 53 -19 21 -38 50 -42 66 -3 15 -24 47 -44 71 -21 25 -41 57
-45 73 -3 16 -19 42 -35 57 -17 16 -30 34 -30 41 0 7 -16 31 -35 54 -19 23
-39 58 -45 78 -5 20 -19 43 -30 49 -11 7 -34 39 -50 70 -55 102 -85 152 -107
175 -12 13 -29 39 -37 59 -8 20 -23 42 -32 50 -10 8 -25 32 -35 54 -10 22 -31
53 -48 69 -16 16 -33 42 -36 57 -4 16 -22 47 -41 70 -19 22 -34 47 -34 54 0 7
-14 26 -30 42 -17 15 -35 44 -41 63 -7 19 -27 52 -45 73 -19 20 -34 43 -34 51
0 8 -16 33 -35 56 -19 23 -35 48 -35 55 0 8 -18 35 -40 60 -22 25 -40 52 -40
59 0 7 -16 33 -35 57 -19 24 -35 49 -35 56 0 7 -13 27 -29 45 -15 18 -38 51
-49 74 -11 22 -28 46 -37 54 -9 8 -25 30 -36 51 -33 65 -360 379 -395 379 -8
0 -31 15 -51 34 -21 18 -52 41 -70 50 -18 9 -37 25 -43 36 -6 11 -28 24 -49
30 -22 6 -58 26 -81 45 -23 19 -50 35 -60 35 -10 0 -31 11 -47 24 -16 14 -54
35 -84 49 -30 13 -62 33 -72 45 -11 11 -37 24 -59 27 -22 4 -54 19 -71 35 -18
15 -57 35 -87 43 -31 9 -66 27 -79 41 -13 14 -40 27 -63 31 -22 4 -54 19 -71
35 -18 15 -57 35 -87 43 -31 9 -66 27 -79 41 -13 14 -40 27 -63 31 -22 4 -54
20 -72 36 -20 17 -55 34 -87 41 -30 7 -75 26 -101 44 -26 17 -62 34 -81 38
-19 3 -42 15 -52 26 -10 11 -42 29 -71 40 -30 11 -71 31 -93 44 -21 14 -56 28
-77 32 -48 8 -83 26 -107 52 -11 11 -37 24 -59 27 -22 4 -54 20 -73 36 -18 16
-48 32 -66 35 -44 9 -79 27 -102 52 -11 11 -36 23 -58 27 -21 4 -54 19 -74 35
-20 16 -59 34 -88 40 -30 6 -63 21 -78 36 -14 14 -50 31 -79 39 -30 8 -64 25
-76 38 -12 13 -44 30 -71 36 -26 7 -60 24 -74 37 -14 14 -50 31 -79 39 -31 8
-64 25 -77 39 -16 18 -38 27 -74 32 -37 5 -62 16 -85 37 -19 16 -53 33 -76 38
-23 6 -56 23 -74 38 -18 17 -50 32 -73 36 -25 4 -58 20 -81 40 -22 18 -53 36
-69 40 -16 3 -43 19 -60 35 -18 15 -53 33 -79 40 -26 6 -58 22 -72 35 -14 13
-45 31 -70 40 -25 9 -56 26 -70 40 -14 13 -43 28 -66 34 -22 6 -51 22 -64 36
-12 13 -44 31 -70 40 -26 9 -56 25 -66 37 -11 11 -39 29 -64 40 -25 11 -56 30
-70 42 -14 13 -38 27 -55 30 -16 4 -46 23 -67 42 -21 19 -44 34 -51 34 -8 0
-24 12 -38 26 -13 15 -44 35 -68 45 -24 11 -59 33 -78 49 -18 17 -38 30 -43
30 -6 0 -27 16 -47 35 -20 19 -43 35 -50 35 -7 0 -27 13 -45 29 -18 15 -47 35
-64 44 -17 9 -47 31 -66 49 -19 18 -49 42 -66 53 -44 28 -182 135 -213 165
-15 14 -49 44 -75 67 -27 23 -74 64 -104 90 -76 66 -464 454 -476 475 -5 9
-43 53 -84 98 -134 146 -150 164 -150 175 0 6 -16 25 -35 42 -19 17 -35 40
-35 51 0 10 -18 37 -40 60 -22 22 -40 47 -40 56 0 8 -15 27 -34 41 -20 15 -38
39 -41 56 -4 16 -19 38 -35 49 -18 13 -31 35 -39 65 -8 33 -19 48 -40 59 -28
15 -41 40 -41 82 0 31 -31 54 -73 54 -47 0 -68 -21 -58 -58 18 -59 39 -99 63
-114 18 -12 27 -29 31 -58 4 -30 14 -50 35 -69 17 -14 35 -43 42 -63 6 -20 22
-43 35 -52 14 -9 29 -33 35 -55 6 -23 21 -46 36 -56 14 -9 32 -33 41 -53 8
-19 28 -48 44 -63 16 -15 29 -35 29 -44 0 -10 17 -37 38 -61 43 -50 128 -156
222 -279 64 -83 253 -287 395 -427 77 -75 176 -173 220 -216 44 -44 94 -87
112 -96 18 -9 45 -35 62 -59 16 -24 36 -49 45 -56 8 -7 20 -29 27 -49 6 -20
27 -54 45 -75 19 -20 34 -44 34 -52 0 -8 15 -32 34 -52 18 -21 41 -53 50 -70
9 -18 21 -33 26 -33 5 0 21 -22 35 -50 14 -27 30 -50 35 -50 6 0 26 -25 45
-55 20 -30 39 -55 44 -55 5 0 32 -32 61 -70 28 -39 63 -78 77 -87 13 -9 33
-32 43 -52 21 -40 449 -471 468 -471 7 0 30 -17 51 -37 22 -21 60 -56 86 -78
81 -69 134 -129 146 -165 7 -19 27 -52 45 -73 19 -20 34 -42 34 -48 0 -7 16
-29 35 -50 19 -22 35 -46 35 -53 0 -8 17 -35 37 -60 21 -25 55 -67 75 -93 21
-26 56 -70 78 -98 22 -27 40 -53 40 -58 0 -14 308 -357 388 -432 276 -258 339
-313 390 -339 18 -9 36 -24 39 -32 3 -8 23 -24 45 -35 21 -11 42 -27 45 -35 3
-9 25 -28 49 -42 42 -27 104 -95 104 -116 0 -6 14 -29 30 -50 17 -22 30 -48
30 -57 0 -10 18 -36 40 -58 22 -22 40 -46 40 -53 0 -8 16 -29 35 -48 19 -19
35 -38 35 -43 0 -9 16 -29 118 -145 83 -93 376 -386 407 -406 17 -11 34 -25
38 -33 4 -7 22 -20 40 -29 18 -9 51 -33 74 -53 23 -20 63 -52 88 -71 25 -19
63 -49 83 -67 21 -17 57 -39 80 -48 23 -10 48 -26 55 -36 7 -10 33 -27 58 -37
24 -11 51 -27 59 -37 8 -10 35 -26 60 -37 25 -11 56 -30 70 -42 14 -13 43 -29
65 -36 22 -7 54 -25 71 -40 18 -15 49 -30 70 -34 22 -4 56 -21 78 -38 21 -17
57 -35 80 -40 22 -5 55 -22 71 -37 20 -20 45 -31 78 -36 31 -4 59 -16 80 -35
21 -18 49 -31 81 -35 32 -5 60 -17 81 -36 23 -20 51 -33 91 -40 82 -14 90 -17
122 -43 16 -14 52 -27 89 -34 36 -6 79 -22 103 -38 28 -18 62 -30 101 -35 40
-5 74 -17 106 -37 36 -23 67 -33 124 -40 54 -7 87 -17 116 -36 29 -19 65 -30
130 -40 61 -9 105 -22 135 -40 30 -17 70 -29 121 -36 54 -7 88 -17 116 -35 25
-17 64 -30 110 -37 50 -7 85 -19 114 -39 24 -16 63 -31 90 -35 31 -4 67 -19
98 -40 27 -19 54 -34 61 -34 19 0 158 -84 198 -120 19 -17 64 -56 100 -87 36
-32 73 -69 82 -84 9 -15 26 -33 37 -39 12 -6 30 -28 41 -49 11 -22 33 -49 48
-60 16 -11 35 -34 42 -50 7 -17 21 -33 31 -36 10 -3 31 -19 46 -36 30 -31 72
-39 91 -16 6 6 14 26 18 42 4 17 23 46 43 66 20 20 52 58 71 84 75 101 293
305 326 305 7 0 28 13 47 29 18 16 53 37 78 47 24 10 58 28 74 40 17 12 54 27
82 33 29 6 77 24 106 41 36 20 74 32 116 36 45 5 75 15 107 37 35 23 62 31
126 38 64 8 92 16 129 40 36 23 65 32 123 38 58 7 87 16 116 36 30 20 58 29
116 36 57 6 87 15 114 34 21 15 66 31 106 39 41 7 87 24 111 40 26 17 64 30
104 36 44 6 76 18 107 40 30 21 62 33 103 39 44 6 67 15 87 34 18 17 47 30 82
37 29 6 69 22 88 37 19 14 60 32 90 39 32 8 66 24 82 39 15 14 51 32 80 40 29
8 65 25 79 39 14 13 46 30 71 36 25 6 56 22 70 36 14 13 41 29 60 35 19 7 57
27 84 46 26 18 54 33 60 33 7 0 25 14 41 30 16 17 47 36 70 42 22 6 54 24 70
39 17 15 44 34 60 42 17 8 41 27 54 41 14 14 29 26 35 26 6 0 33 18 60 40 26
22 51 40 55 40 5 0 27 17 49 38 42 37 76 66 167 143 59 50 348 341 370 372 15
22 41 53 119 142 24 28 47 60 50 73 4 12 16 27 27 33 11 6 29 30 39 54 10 24
30 51 43 60 14 9 27 30 31 47 3 17 22 48 41 69 19 22 35 43 35 48 0 5 17 20
38 32 20 12 54 36 74 53 20 17 63 51 94 76 31 25 70 59 88 76 17 17 48 43 69
58 20 15 77 66 125 114 49 48 121 113 161 146 39 32 79 73 88 90 8 17 46 65
84 106 117 127 158 173 199 225 22 28 51 62 64 76 13 14 34 45 45 68 12 23 29
45 37 48 8 3 23 22 33 42 11 20 28 44 39 54 11 10 26 33 33 50 7 18 25 46 40
62 15 17 35 46 43 66 8 19 22 42 31 49 9 8 25 31 36 51 10 21 31 46 45 56 84
59 255 216 458 421 278 281 333 342 384 426 9 16 35 51 57 77 22 27 56 69 75
94 19 25 52 65 73 89 20 24 37 48 37 54 0 6 14 27 30 46 17 18 36 49 44 67 8
19 26 45 40 58 14 14 26 33 26 43 0 39 44 88 178 198 34 29 62 56 62 60 0 5
21 24 48 42 63 43 300 275 319 312 9 17 45 60 82 97 65 65 94 99 185 209 25
30 58 71 74 90 16 19 32 44 36 56 4 12 22 35 41 53 19 17 35 38 35 45 0 8 14
26 30 40 17 14 39 45 49 70 11 24 28 49 39 55 10 5 24 27 30 48 7 24 22 45 40
55 18 11 33 31 41 58 6 22 22 47 35 55 15 10 26 29 30 54 4 28 15 46 41 65 28
22 35 34 35 61 0 47 8 64 41 81 23 11 29 21 29 47 0 40 -15 57 -52 57 -22 0
-33 -9 -53 -40z m-15732 -2211 c18 -15 49 -34 70 -42 20 -9 40 -23 43 -32 4
-9 27 -26 53 -39 25 -13 55 -33 65 -45 11 -12 39 -30 63 -41 24 -10 43 -23 43
-28 0 -6 19 -17 43 -27 23 -9 56 -29 72 -44 17 -16 46 -34 65 -40 19 -6 46
-22 60 -36 14 -13 45 -31 70 -40 25 -9 56 -26 70 -39 14 -13 41 -29 61 -35 20
-6 47 -23 59 -36 13 -14 41 -30 62 -36 21 -5 53 -23 72 -39 18 -17 38 -30 42
-30 30 0 89 -25 117 -49 17 -15 46 -31 62 -35 17 -4 47 -21 69 -38 21 -17 56
-35 79 -40 22 -5 55 -22 72 -37 18 -16 50 -31 71 -35 22 -4 56 -21 78 -38 21
-17 56 -35 79 -40 22 -5 55 -22 72 -37 18 -16 50 -31 71 -35 22 -4 56 -21 78
-38 21 -17 56 -35 79 -40 22 -5 55 -22 72 -37 18 -16 50 -31 71 -35 22 -4 56
-21 78 -38 21 -17 56 -35 79 -40 22 -5 55 -22 72 -37 18 -16 50 -31 71 -35 22
-4 56 -21 78 -38 21 -17 56 -35 78 -40 22 -5 57 -22 77 -38 19 -17 46 -30 59
-30 32 0 84 -23 106 -49 11 -11 24 -21 30 -21 32 0 90 -25 119 -50 18 -15 51
-31 72 -35 22 -4 60 -20 85 -35 25 -16 63 -33 86 -39 22 -6 51 -22 63 -35 13
-14 45 -30 75 -37 28 -6 69 -24 91 -40 22 -15 60 -33 85 -39 24 -7 57 -23 73
-36 15 -13 47 -29 70 -36 23 -6 60 -24 82 -40 22 -16 58 -33 80 -39 21 -6 52
-22 68 -35 15 -13 47 -29 70 -35 23 -7 56 -22 73 -35 16 -12 48 -30 70 -39 21
-9 50 -27 64 -39 14 -13 42 -29 63 -36 21 -7 53 -25 71 -40 17 -15 49 -33 72
-39 22 -6 53 -24 69 -41 16 -16 34 -30 41 -30 7 0 34 -18 59 -40 25 -22 51
-40 57 -40 24 0 188 -156 248 -235 19 -26 52 -64 73 -84 72 -71 31 -114 -44
-46 -22 19 -48 35 -60 35 -25 0 -57 16 -89 45 -14 13 -49 28 -78 34 -31 6 -69
24 -90 40 -23 19 -55 32 -85 36 -29 5 -61 18 -83 36 -24 19 -53 31 -86 35 -27
4 -63 17 -81 30 -44 32 -63 40 -131 53 -39 7 -69 19 -85 35 -18 17 -43 27 -80
32 -38 5 -63 15 -86 35 -24 21 -52 33 -103 42 -47 9 -80 22 -101 40 -19 16
-50 28 -79 33 -52 7 -92 25 -111 48 -7 8 -40 21 -72 27 -36 7 -76 24 -100 41
-26 18 -62 33 -97 38 -37 6 -64 18 -81 34 -15 15 -48 30 -78 36 -29 6 -68 24
-88 40 -20 16 -53 31 -75 35 -21 4 -59 20 -85 36 -26 16 -69 34 -97 40 -29 7
-63 23 -83 40 -18 16 -48 32 -66 35 -44 9 -79 27 -102 52 -11 11 -37 24 -59
27 -22 4 -54 20 -73 36 -18 16 -48 32 -66 35 -44 9 -79 27 -102 52 -11 11 -37
24 -58 27 -22 4 -52 18 -68 31 -16 13 -49 32 -74 43 -24 11 -48 25 -52 31 -4
7 -33 23 -64 37 -31 13 -67 35 -81 48 -14 12 -42 28 -63 35 -21 7 -53 24 -70
40 -18 15 -45 30 -62 34 -16 4 -46 23 -67 42 -21 19 -44 34 -51 34 -8 0 -24
12 -38 26 -13 14 -46 36 -74 48 -27 13 -56 31 -64 40 -8 10 -31 26 -50 36 -20
10 -47 30 -60 44 -14 14 -30 26 -37 26 -12 0 -37 19 -144 108 -19 16 -49 36
-65 45 -17 8 -39 25 -50 37 -11 12 -37 31 -57 41 -20 10 -41 25 -45 32 -4 7
-19 21 -33 30 -34 23 -85 68 -180 160 -44 42 -84 77 -88 77 -12 0 -478 463
-491 487 -11 22 -11 22 25 0 19 -12 50 -34 67 -48z m13917 36 c0 -8 -55 -67
-122 -132 -67 -65 -171 -168 -232 -228 -61 -61 -127 -122 -146 -136 -19 -15
-55 -47 -80 -73 -25 -26 -62 -56 -82 -67 -21 -11 -38 -23 -38 -28 0 -5 -16
-19 -35 -31 -32 -20 -71 -53 -140 -118 -17 -16 -44 -36 -61 -45 -17 -9 -37
-23 -44 -32 -8 -9 -32 -26 -54 -37 -23 -12 -47 -29 -54 -39 -7 -11 -28 -26
-45 -35 -18 -9 -43 -27 -57 -40 -14 -12 -41 -30 -61 -38 -20 -9 -50 -29 -67
-46 -17 -16 -37 -30 -44 -30 -8 0 -27 -13 -43 -30 -15 -16 -44 -35 -64 -41
-20 -6 -49 -24 -66 -39 -16 -15 -50 -36 -75 -47 -25 -11 -51 -27 -58 -36 -8
-9 -30 -21 -50 -28 -20 -6 -48 -22 -62 -35 -14 -13 -45 -30 -70 -39 -25 -9
-56 -26 -70 -39 -14 -13 -42 -29 -63 -36 -21 -7 -52 -25 -68 -41 -18 -18 -45
-31 -70 -35 -24 -4 -56 -20 -80 -39 -23 -20 -56 -36 -80 -40 -23 -4 -55 -19
-73 -36 -18 -15 -52 -32 -75 -38 -24 -5 -56 -21 -71 -36 -15 -14 -51 -32 -80
-40 -29 -8 -65 -26 -80 -40 -18 -17 -44 -28 -79 -34 -34 -5 -61 -17 -79 -34
-16 -16 -48 -31 -80 -37 -29 -7 -66 -23 -82 -37 -17 -14 -55 -31 -85 -39 -31
-8 -76 -28 -100 -43 -25 -16 -63 -31 -85 -35 -22 -3 -58 -19 -80 -35 -25 -18
-58 -31 -90 -35 -35 -5 -60 -16 -84 -36 -18 -17 -47 -32 -62 -35 -16 -2 -46
-7 -67 -10 -21 -3 -52 -19 -71 -36 -25 -21 -49 -31 -86 -36 -34 -4 -62 -15
-86 -34 -34 -27 -45 -30 -125 -44 -21 -3 -54 -17 -75 -31 -21 -14 -67 -32
-102 -39 -35 -8 -74 -22 -86 -33 -31 -28 -55 -39 -109 -46 -32 -5 -59 -17 -82
-37 -23 -20 -50 -33 -85 -38 -34 -5 -60 -17 -78 -34 -18 -17 -47 -30 -81 -37
-35 -6 -65 -20 -87 -40 -19 -16 -45 -30 -59 -30 -13 0 -36 -11 -52 -24 -26
-21 -105 -66 -118 -66 -3 0 -5 7 -5 15 0 17 70 115 82 115 4 0 21 20 38 44 42
61 120 140 158 160 18 9 39 28 48 42 10 14 34 34 56 45 21 11 38 24 38 30 0 5
24 21 53 33 28 13 63 36 76 50 14 14 30 26 36 26 7 0 31 14 55 31 23 17 59 37
79 44 21 7 51 26 67 42 17 18 46 33 69 37 22 4 54 21 72 36 18 16 50 32 70 36
21 4 53 19 70 35 28 24 87 49 117 49 4 0 23 13 42 30 18 16 51 32 71 36 21 4
53 19 70 35 28 24 87 49 116 49 5 0 23 11 40 24 18 13 57 31 87 40 31 8 67 27
80 41 14 15 40 28 62 32 21 3 57 20 80 39 28 22 58 35 90 39 30 4 61 17 84 36
20 16 55 34 78 40 22 6 59 24 81 39 22 16 60 34 83 40 24 6 61 24 83 39 21 16
56 31 78 35 24 3 55 19 74 36 19 16 53 33 76 39 24 5 56 21 71 36 15 14 51 32
80 40 29 8 65 25 79 39 14 14 46 29 70 35 24 5 56 21 71 36 15 14 51 32 80 40
29 8 65 25 79 39 14 14 46 29 70 35 24 5 56 21 71 36 15 14 51 32 80 40 29 8
65 25 79 39 14 14 46 29 70 35 24 5 55 21 70 35 15 14 50 33 77 41 28 8 61 26
74 40 13 13 38 28 57 31 18 3 49 19 69 35 20 16 55 34 77 40 22 6 62 26 89 45
28 19 56 34 64 34 7 0 28 13 46 29 18 15 51 34 73 41 22 7 51 23 65 36 14 13
45 30 70 39 25 9 58 29 75 44 16 16 41 32 55 36 14 4 36 18 50 31 14 13 45 30
70 39 25 9 57 29 72 45 15 17 36 30 47 30 11 0 32 12 45 27 14 15 38 34 54 43
37 19 112 73 176 127 53 43 86 54 86 28z m-12676 -1454 c28 -21 65 -45 81 -54
17 -8 40 -27 52 -41 13 -14 32 -26 44 -26 12 0 34 -14 49 -30 16 -17 48 -37
71 -45 24 -9 53 -24 64 -35 12 -11 36 -25 55 -31 19 -6 51 -26 70 -44 19 -18
49 -36 65 -39 17 -4 47 -21 69 -38 21 -17 56 -35 79 -40 22 -5 55 -22 72 -37
18 -16 50 -31 71 -35 22 -4 56 -21 78 -38 21 -17 56 -35 79 -40 22 -5 55 -22
73 -37 18 -16 50 -32 73 -36 22 -3 51 -17 66 -31 36 -33 59 -44 94 -44 19 0
43 -11 65 -30 22 -20 52 -34 87 -40 29 -6 64 -18 77 -28 46 -33 87 -52 114
-52 36 0 75 -16 108 -44 18 -14 47 -25 80 -29 37 -5 61 -14 85 -36 25 -22 51
-32 104 -41 42 -7 85 -22 107 -36 20 -14 65 -31 100 -38 36 -8 82 -25 103 -39
23 -16 61 -29 93 -33 35 -4 67 -16 96 -36 34 -23 60 -32 114 -38 47 -5 76 -14
91 -28 35 -31 61 -41 132 -51 43 -6 80 -19 104 -35 20 -14 69 -32 110 -40 41
-9 91 -27 112 -41 21 -13 57 -27 81 -31 24 -3 68 -21 98 -39 30 -18 74 -36 98
-40 26 -4 57 -19 77 -36 18 -16 48 -32 66 -35 42 -8 81 -28 99 -49 7 -9 29
-23 49 -31 20 -8 45 -23 56 -33 11 -10 35 -26 54 -36 34 -17 67 -45 149 -126
48 -47 73 -81 116 -159 13 -25 36 -56 50 -69 14 -14 26 -30 26 -37 0 -7 18
-34 40 -59 22 -25 40 -52 40 -60 0 -13 34 -59 108 -146 39 -46 55 -89 33 -89
-6 0 -47 25 -92 55 -45 30 -96 57 -114 61 -18 3 -46 18 -63 34 -20 18 -47 30
-79 34 -30 5 -62 18 -84 36 -25 20 -61 34 -110 44 -50 11 -81 24 -99 41 -19
18 -42 27 -78 32 -34 4 -70 17 -102 38 -36 23 -68 34 -109 39 -44 5 -69 14
-96 36 -20 16 -51 32 -69 34 -17 3 -49 7 -70 10 -24 3 -50 16 -67 32 -21 20
-44 29 -85 35 -35 5 -70 18 -95 35 -25 17 -67 32 -111 41 -43 8 -90 25 -117
42 -25 16 -67 33 -94 36 -28 4 -64 19 -88 37 -26 18 -63 33 -100 40 -37 6 -71
20 -88 34 -16 13 -53 29 -82 35 -30 7 -71 25 -91 41 -21 16 -59 33 -88 38 -58
11 -78 20 -104 48 -10 11 -36 24 -58 27 -22 4 -54 20 -73 36 -18 16 -48 32
-66 35 -43 9 -68 21 -99 49 -14 12 -42 26 -63 29 -20 4 -53 20 -71 37 -19 16
-49 34 -68 41 -18 6 -45 21 -60 34 -15 12 -44 28 -65 34 -21 7 -51 25 -68 40
-16 15 -46 33 -66 39 -20 6 -48 25 -64 41 -15 16 -40 32 -55 35 -16 3 -36 15
-46 27 -11 11 -35 28 -54 38 -19 10 -44 28 -55 40 -11 12 -41 33 -66 45 -25
13 -51 31 -59 40 -7 9 -27 23 -44 32 -16 8 -44 29 -62 47 -39 38 -97 84 -138
111 -17 11 -42 30 -56 42 -14 12 -85 74 -158 138 -115 100 -346 326 -472 463
-67 72 -47 85 34 23z m11420 27 c-3 -7 -24 -31 -45 -53 -106 -109 -358 -362
-389 -390 -70 -64 -300 -261 -345 -295 -25 -19 -63 -49 -83 -66 -20 -17 -52
-39 -69 -48 -18 -9 -40 -27 -49 -41 -8 -13 -30 -29 -49 -35 -18 -6 -41 -20
-51 -31 -11 -12 -32 -28 -49 -36 -16 -8 -41 -26 -55 -39 -14 -12 -43 -30 -65
-40 -22 -9 -55 -29 -73 -45 -18 -16 -39 -29 -47 -29 -8 0 -30 -14 -49 -30 -18
-17 -53 -37 -77 -45 -24 -9 -55 -26 -69 -39 -14 -13 -42 -29 -63 -36 -21 -7
-52 -25 -68 -41 -18 -18 -45 -31 -70 -35 -24 -4 -56 -20 -80 -39 -23 -20 -56
-36 -80 -40 -23 -4 -55 -19 -73 -36 -18 -15 -51 -32 -74 -38 -23 -5 -57 -22
-76 -38 -23 -21 -49 -32 -83 -37 -36 -4 -59 -15 -81 -35 -21 -21 -45 -32 -79
-36 -28 -4 -65 -19 -90 -36 -23 -16 -65 -34 -93 -39 -54 -10 -81 -22 -118 -51
-13 -10 -48 -21 -78 -25 -36 -4 -65 -15 -83 -30 -34 -28 -73 -44 -108 -44 -15
0 -58 -16 -97 -35 -39 -19 -98 -40 -131 -46 -41 -7 -69 -19 -87 -37 -21 -19
-43 -27 -93 -33 -49 -6 -77 -16 -108 -38 -27 -20 -62 -33 -99 -39 -34 -5 -73
-20 -96 -36 -23 -15 -63 -30 -97 -36 -32 -5 -69 -17 -82 -27 -51 -37 -89 -53
-125 -53 -27 0 -47 -8 -72 -30 -22 -19 -52 -34 -86 -40 -28 -5 -70 -23 -93
-39 -23 -16 -60 -34 -83 -40 -22 -6 -51 -22 -64 -36 -13 -14 -41 -30 -62 -36
-25 -6 -43 -19 -50 -34 -11 -25 -34 -39 -49 -29 -13 8 8 42 31 49 12 4 24 21
30 46 7 23 22 48 40 60 16 12 34 34 40 49 6 16 23 39 37 52 13 12 31 38 39 57
8 18 27 49 44 67 16 19 30 39 30 44 0 5 18 30 40 55 22 25 40 52 40 60 0 40
160 198 232 228 20 8 41 24 47 35 6 11 29 27 53 36 23 10 55 28 71 42 16 13
49 29 73 35 24 6 61 25 81 40 36 29 44 32 116 44 21 3 41 13 44 21 8 22 51 41
110 49 31 4 70 18 95 35 27 18 67 33 106 39 34 5 74 19 88 30 29 23 70 37 136
46 29 4 60 16 78 31 20 18 53 30 102 39 41 7 99 26 132 44 32 17 71 31 87 31
34 0 95 24 120 46 9 8 49 21 89 30 76 15 99 25 137 54 13 10 49 21 80 25 42 5
65 14 85 32 19 18 48 30 99 39 52 10 80 22 104 43 21 18 49 31 81 36 26 4 62
17 79 30 17 13 57 31 90 40 32 8 76 26 96 39 20 14 63 32 94 40 32 8 69 26 84
40 14 14 46 29 70 35 24 5 56 21 71 36 15 14 51 32 80 40 29 8 65 25 79 39 14
14 46 29 70 35 24 5 55 21 70 35 15 14 49 32 75 40 27 8 60 26 75 39 14 14 43
30 63 36 20 7 42 19 50 28 7 9 38 27 68 40 30 14 60 33 67 43 7 10 35 26 62
35 27 9 57 25 67 36 11 12 32 28 49 36 16 9 46 30 66 48 20 18 51 36 68 40 18
4 39 18 48 32 22 34 95 62 77 31z m-1294 -1426 c0 -13 -23 -32 -37 -32 -11 0
-11 5 -3 20 10 19 40 28 40 12z m-8793 -62 c34 -17 67 -38 74 -46 7 -9 36 -26
64 -39 27 -12 59 -32 69 -44 11 -11 38 -26 60 -32 23 -6 52 -23 66 -38 17 -19
41 -30 70 -35 27 -4 60 -19 84 -38 21 -17 56 -35 78 -40 22 -5 57 -22 77 -38
19 -17 42 -30 51 -30 33 0 91 -22 117 -44 15 -13 47 -27 69 -30 23 -4 65 -22
93 -40 31 -20 71 -36 100 -40 28 -4 67 -19 92 -36 28 -18 67 -33 107 -39 68
-11 76 -14 110 -44 14 -13 44 -23 82 -28 41 -5 75 -16 108 -38 36 -23 65 -33
113 -37 49 -5 74 -13 107 -36 33 -23 60 -32 113 -38 51 -6 81 -15 117 -39 36
-23 65 -32 113 -37 49 -5 74 -13 107 -36 34 -23 60 -32 113 -38 51 -6 80 -15
110 -35 25 -18 66 -33 112 -42 41 -8 86 -24 107 -38 20 -14 62 -30 93 -36 32
-7 80 -27 109 -45 29 -19 60 -34 69 -34 9 0 40 -16 68 -35 28 -19 55 -35 61
-35 5 0 27 -15 47 -34 21 -18 49 -39 62 -46 81 -42 426 -376 436 -422 4 -15
16 -33 27 -39 11 -6 26 -26 34 -44 7 -18 27 -43 44 -55 19 -14 30 -30 30 -46
0 -33 -31 -32 -72 5 -18 15 -53 39 -78 51 -25 13 -57 33 -72 45 -15 13 -47 25
-76 29 -32 4 -65 17 -92 37 -25 19 -62 34 -94 39 -29 5 -70 20 -90 34 -21 14
-54 28 -75 32 -57 9 -103 25 -146 50 -22 12 -67 27 -100 33 -33 6 -76 23 -98
38 -23 16 -59 29 -93 34 -35 5 -71 18 -95 35 -25 17 -67 32 -112 41 -42 8 -88
24 -112 40 -22 15 -69 32 -109 39 -48 9 -78 21 -95 38 -18 17 -43 27 -80 32
-38 5 -63 15 -86 35 -17 16 -54 33 -81 39 -27 6 -69 24 -94 39 -25 15 -69 33
-97 40 -29 7 -68 25 -88 41 -20 16 -54 31 -81 35 -30 4 -56 16 -75 35 -16 15
-51 33 -77 40 -26 6 -59 23 -73 36 -14 14 -50 31 -79 39 -29 8 -65 25 -79 38
-14 14 -42 30 -62 36 -20 6 -46 23 -59 36 -13 13 -44 31 -70 40 -26 9 -57 27
-70 40 -12 13 -35 27 -50 30 -15 3 -42 21 -60 40 -18 19 -45 37 -60 40 -16 3
-36 15 -46 27 -11 11 -41 31 -67 44 -26 14 -51 32 -54 40 -3 8 -26 25 -52 38
-25 13 -55 33 -65 45 -11 12 -24 21 -31 21 -6 0 -31 18 -55 40 -59 54 -184
164 -276 245 -87 76 -169 165 -151 165 2 0 31 -14 64 -30z m8723 4 c0 -24
-127 -155 -208 -214 -24 -17 -62 -51 -85 -74 -23 -24 -56 -51 -74 -60 -18 -9
-36 -22 -40 -30 -4 -7 -22 -22 -39 -32 -30 -18 -43 -29 -146 -113 -26 -22 -61
-42 -77 -46 -16 -3 -37 -18 -46 -31 -9 -14 -35 -33 -58 -43 -23 -10 -50 -28
-61 -39 -10 -12 -35 -26 -55 -33 -20 -6 -49 -24 -66 -39 -16 -15 -46 -33 -66
-39 -20 -6 -47 -23 -59 -36 -13 -14 -41 -30 -62 -36 -21 -5 -53 -23 -71 -39
-18 -15 -49 -31 -70 -35 -20 -4 -53 -20 -73 -36 -20 -16 -55 -34 -78 -40 -22
-6 -59 -24 -81 -40 -22 -15 -62 -33 -88 -39 -27 -6 -65 -23 -85 -39 -21 -16
-56 -32 -79 -36 -23 -4 -58 -19 -78 -35 -23 -18 -53 -31 -86 -35 -36 -5 -59
-15 -80 -36 -30 -30 -42 -34 -120 -44 -29 -4 -54 -14 -65 -27 -26 -28 -76 -48
-123 -48 -27 0 -48 -8 -69 -25 -35 -29 -73 -45 -109 -45 -15 0 -58 -16 -97
-35 -39 -19 -96 -39 -126 -45 -30 -6 -72 -22 -93 -36 -22 -14 -65 -30 -99 -35
-33 -5 -74 -18 -90 -27 -78 -45 -96 -52 -134 -52 -25 0 -51 -7 -65 -19 -40
-30 -81 -48 -131 -54 -29 -4 -63 -18 -89 -37 -26 -19 -60 -32 -91 -36 -38 -5
-57 -14 -76 -36 -16 -18 -40 -31 -64 -34 -23 -4 -46 -16 -57 -30 -20 -26 -68
-51 -77 -41 -13 13 7 57 46 102 22 25 45 56 51 68 14 27 31 45 209 222 188
188 310 289 370 305 21 6 45 21 54 34 9 15 36 31 68 41 29 10 62 26 73 36 11
10 47 24 80 32 33 8 85 28 115 45 30 16 79 33 107 37 29 4 63 15 77 26 33 26
65 37 144 49 36 6 73 17 82 24 28 25 57 35 126 46 43 7 83 20 105 36 23 16 65
30 111 38 42 7 94 25 119 39 25 15 74 31 114 37 44 7 83 20 106 36 20 14 66
30 105 38 40 7 87 24 109 39 24 16 70 32 112 40 44 8 87 24 110 40 21 15 63
31 92 37 29 5 66 21 82 34 16 14 53 30 83 36 29 6 75 24 100 41 26 16 67 34
92 39 25 6 62 24 82 40 21 16 54 32 76 36 21 4 53 20 71 35 18 16 48 32 66 35
43 9 71 23 86 45 7 9 33 24 58 33 26 8 60 27 76 41 17 14 36 25 42 25 7 0 43
23 81 50 60 43 106 63 106 44z"/>
<path d="M12163 1290 c-12 -5 -27 -19 -33 -31 -19 -34 14 -69 80 -86 30 -7 72
-25 92 -38 24 -16 63 -29 110 -35 49 -7 86 -19 112 -37 31 -20 60 -28 123 -34
60 -6 98 -17 136 -36 52 -28 52 -28 2242 -31 1545 -2 2209 1 2254 8 35 6 81
20 102 31 22 11 75 23 122 28 63 6 92 14 123 34 26 18 63 30 113 37 44 6 85
18 103 31 16 12 59 31 96 42 65 21 67 23 70 59 2 28 -2 40 -20 52 -20 15 -283
16 -2913 15 -1639 0 -2899 -4 -2912 -9z"/>
<path d="M12743 620 c-43 -10 -63 -27 -63 -56 0 -31 24 -52 68 -59 90 -13 136
-27 163 -46 18 -13 57 -24 102 -30 39 -6 94 -21 120 -34 26 -14 76 -29 110
-35 42 -7 633 -10 1868 -8 1806 3 1806 3 1870 36 45 23 83 35 129 39 45 4 81
14 115 33 32 18 77 32 124 39 90 12 121 35 105 78 -6 19 -21 32 -44 40 -27 9
-578 12 -2335 11 -1265 0 -2315 -4 -2332 -8z"/>
</g>
</svg>
